<?xml version="1.0" encoding="UTF-8"?>
<svg version="1.1" xmlns="http://www.w3.org/2000/svg" width="338" height="146">
<path d="M0 0 C111.54 0 223.08 0 338 0 C338 48.18 338 96.36 338 146 C226.46 146 114.92 146 0 146 C0 97.82 0 49.64 0 0 Z " fill="#FCFCFC" transform="translate(0,0)"/>
<path d="M0 0 C8.7119837 4.84697575 12.8829152 12.08237077 17.1875 20.8125 C18.08229196 22.58117058 18.97712317 24.34982154 19.8729248 26.11798096 C20.86982718 28.09049301 21.86052148 30.06604001 22.85058594 32.04199219 C26.66553017 39.64108349 30.56229317 47.19872811 34.44281006 54.76446533 C35.77303155 57.36047488 37.10016692 59.95803675 38.42626953 62.55615234 C43.110179 71.7264178 47.85171447 80.86281129 52.66142273 89.96774292 C55.56015634 95.46219423 58.38458738 100.98719907 61.125 106.5625 C64.75044591 113.88397958 68.49684359 121.12988988 72.37133789 128.32275391 C75.0625 133.33801805 75.0625 133.33801805 75.0625 134.4375 C23.5825 134.4375 -27.8975 134.4375 -80.9375 134.4375 C-77.1724374 130.04492696 -73.42148858 125.74021624 -69.5 121.5 C-62.15796729 114.04683074 -62.15796729 114.04683074 -55.9226532 105.73382568 C-53.72429432 102.46454359 -52.08319514 100.69203257 -48.15647888 99.81965637 C-44.63961164 99.62677964 -41.18480707 99.65113515 -37.6640625 99.75390625 C-35.74574112 99.7687632 -35.74574112 99.7687632 -33.78866577 99.78392029 C-30.40398571 99.8164019 -27.02266493 99.87916309 -23.63891602 99.95684814 C-20.18014416 100.02872797 -16.72102377 100.06048384 -13.26171875 100.09570312 C-6.48605694 100.17279764 0.28802776 100.28987123 7.0625 100.4375 C6.62919876 99.60418152 6.19589752 98.77086304 5.74946594 97.91229248 C3.9350463 94.42178028 2.12350756 90.92978322 0.3125 87.4375 C-0.19221329 86.46508362 -0.19221329 86.46508362 -0.7071228 85.47302246 C-6.01574453 75.23946632 -11.21687097 64.96010563 -16.25488281 54.58984375 C-16.94275879 53.19185547 -16.94275879 53.19185547 -17.64453125 51.765625 C-18.0413208 50.9499707 -18.43811035 50.13431641 -18.84692383 49.29394531 C-19.80530675 47.27664739 -19.80530675 47.27664739 -21.9375 46.4375 C-22.14246094 46.96214844 -22.34742188 47.48679688 -22.55859375 48.02734375 C-24.54260055 51.49514034 -27.24259077 54.1300594 -30 57 C-33.95369785 61.17885025 -37.78987363 65.36991668 -41.375 69.875 C-45.02580503 74.44018714 -48.92391549 78.69447675 -52.9375 82.9375 C-57.74690248 88.02212593 -62.28570805 93.21226232 -66.65625 98.68359375 C-70.31220792 103.0970361 -74.24405445 107.24830045 -78.15234375 111.4375 C-80.90346194 114.38821452 -83.57035854 117.40369915 -86.20703125 120.45703125 C-89.12507096 123.79663878 -92.12651052 127.06139965 -95.1171875 130.3359375 C-96.97426667 132.30473421 -96.97426667 132.30473421 -97.9375 134.4375 C-114.4375 134.4375 -130.9375 134.4375 -147.9375 134.4375 C-144.1713136 129.41591813 -141.08878911 125.44698266 -136.71484375 121.20703125 C-134.28210863 118.78498947 -132.0617147 116.20368609 -129.8203125 113.60546875 C-127.7217468 111.18907049 -125.583103 108.81220976 -123.4375 106.4375 C-120.76701656 103.47880249 -118.11451942 100.50823528 -115.5 97.5 C-112.73965459 94.32528403 -109.90957442 91.22212564 -107.0625 88.125 C-103.81121306 84.56615889 -100.69710542 80.95230381 -97.6875 77.1875 C-92.80503341 71.13219891 -87.48543506 65.5255579 -82.15625 59.8671875 C-78.20433983 55.66941078 -74.41404227 51.35459495 -70.68310547 46.95996094 C-64.6188787 39.81938131 -58.48663134 32.77783173 -52.09814453 25.92456055 C-49.38604949 23.01424974 -46.72151783 20.07631534 -44.125 17.0625 C-32.88920898 4.20616219 -17.9969261 -7.21735591 0 0 Z " fill="#020166" transform="translate(155.9375,4.5625)"/>
<path d="M0 0 C11.00571776 -0.06977594 22.01138213 -0.12295069 33.01727676 -0.15543652 C38.12878532 -0.17103486 43.24014157 -0.19216564 48.3515625 -0.22631836 C53.29233021 -0.25912099 58.23295222 -0.27689677 63.1738205 -0.28463173 C65.05070028 -0.29013794 66.92757288 -0.30088934 68.80438995 -0.31719017 C82.88585621 -0.43453276 98.71412577 -0.38280824 109.84765625 9.66796875 C115.68659521 16.16683693 117.53960686 22.01155731 117.4375 30.625 C117.42992676 31.51292236 117.42235352 32.40084473 117.41455078 33.31567383 C117.11662109 45.25352065 113.36484124 55.06432099 105.2578125 63.8984375 C90.56013948 77.86427618 70.18723793 80.2222068 50.875 80.0625 C49.2971875 80.05573242 49.2971875 80.05573242 47.6875 80.04882812 C45.12493779 80.03718011 42.56250123 80.02082553 40 80 C37.57635994 75.31993285 35.15535207 70.63851756 32.73681641 65.95581055 C31.91300226 64.36168302 31.08845911 62.76793201 30.26318359 61.17456055 C29.07980364 58.88948654 27.89901798 56.60308884 26.71875 54.31640625 C26.34689575 53.59973282 25.9750415 52.88305939 25.59191895 52.14466858 C23 47.11387171 23 47.11387171 23 46 C24.26070312 45.98541748 25.52140625 45.97083496 26.8203125 45.95581055 C31.52453115 45.89757513 36.22828373 45.82034437 40.93212891 45.73754883 C42.96297609 45.70441787 44.99391274 45.67634957 47.02490234 45.65356445 C49.95448718 45.61980023 52.8832609 45.56747401 55.8125 45.51171875 C56.71178223 45.50532883 57.61106445 45.4989389 58.53759766 45.49235535 C64.32172037 45.35926988 68.73488753 44.455937 74 42 C76.25813602 38.51870697 76.53315494 35.08752118 76 31 C72.2921456 27.2921456 68.48116449 26.87277738 63.42700195 26.79467773 C62.28604568 26.77473251 61.14508942 26.75478729 59.96955872 26.73423767 C58.73823715 26.71752518 57.50691559 26.70081268 56.23828125 26.68359375 C54.34688667 26.6524221 54.34688667 26.6524221 52.4172821 26.62062073 C49.06854542 26.56627878 45.71979795 26.51603834 42.37097168 26.46777344 C38.95233771 26.41749643 35.53379174 26.36184276 32.11523438 26.30664062 C25.41022638 26.199465 18.70515247 26.09769488 12 26 C10.36385595 22.9850778 8.74317243 19.96210053 7.125 16.9375 C6.66480469 16.08994141 6.20460937 15.24238281 5.73046875 14.36914062 C5.28574219 13.53447266 4.84101563 12.69980469 4.3828125 11.83984375 C3.97434082 11.08050537 3.56586914 10.32116699 3.14501953 9.53881836 C1.74568648 6.43611807 0.87431435 3.28482358 0 0 Z " fill="#020166" transform="translate(203,59)"/>
<path d="M0 0 C1.26971649 -0.00029205 2.53943298 -0.00058411 3.84762573 -0.00088501 C7.28901266 -0.0014528 10.73025675 0.01020717 14.17161083 0.02426291 C17.78303976 0.03686724 21.39447288 0.03794834 25.00592041 0.04031372 C31.82666725 0.04650024 38.64734905 0.06287227 45.46806741 0.0830127 C53.24086092 0.10546037 61.01365774 0.11638731 68.78647566 0.12640357 C84.75905513 0.14724141 100.73156992 0.18236164 116.70410156 0.22705078 C115.74602728 1.34866479 114.78740527 2.46981094 113.82855225 3.59075928 C113.2947784 4.21514767 112.76100456 4.83953606 112.21105576 5.48284531 C110.5112253 7.45029302 108.76043242 9.35766944 106.96972656 11.24267578 C106.31230469 11.93748047 105.65488281 12.63228516 104.97753906 13.34814453 C104.30980469 14.05068359 103.64207031 14.75322266 102.95410156 15.47705078 C101.62495342 16.87712185 100.29684519 18.27818081 98.96972656 19.68017578 C98.3039711 20.35648041 97.63821564 21.03278503 96.95228577 21.72958374 C94.63529881 24.16994571 94.63529881 24.16994571 92.89476013 27.03311157 C90.00437982 31.13240661 87.38813996 34.47254924 82.47504807 35.85365295 C75.72298994 36.86250925 68.9043598 36.61047944 62.09863281 36.48486328 C59.88766578 36.48424526 57.67669223 36.48862927 55.46574402 36.49777222 C49.66596807 36.50906803 43.86859231 36.45572039 38.0692749 36.38763428 C32.17223482 36.32856966 26.27522369 36.32569156 20.37792969 36.32080078 C13.7474176 36.31472077 7.11752895 36.3038763 0.48725891 36.24343872 C-1.02617096 36.23175407 -1.02617096 36.23175407 -2.57017517 36.21983337 C-4.44346049 36.2046772 -6.31671986 36.18550679 -8.18991089 36.16136169 C-13.01119367 36.12616138 -17.54249556 36.40683745 -22.29589844 37.22705078 C-37.29589844 9.09371745 -37.29589844 9.09371745 -37.29589844 6.22705078 C-35.55042459 5.58951956 -33.79912934 4.96792933 -32.04589844 4.35205078 C-31.07136719 4.00400391 -30.09683594 3.65595703 -29.09277344 3.29736328 C-19.4400416 0.57632571 -9.98714096 -0.06125028 0 0 Z " fill="#030266" transform="translate(215.2958984375,4.77294921875)"/>
<path d="M0 0 C0.99 1.32 1.98 2.64 3 4 C2.01 5.485 2.01 5.485 1 7 C0.34 7 -0.32 7 -1 7 C-1.33 7.99 -1.66 8.98 -2 10 C-4.21701147 11.58965571 -6.57862473 12.72327486 -9 14 C-8.67 14.66 -8.34 15.32 -8 16 C-8.45375 16.433125 -8.9075 16.86625 -9.375 17.3125 C-11.97087064 20.00821182 -13.25252264 22.38719276 -14 26 C-15.32 25.67 -16.64 25.34 -18 25 C-18.33 25.99 -18.66 26.98 -19 28 C-21.5625 29.6875 -21.5625 29.6875 -24 31 C-24.33 30.34 -24.66 29.68 -25 29 C-24.64550781 28.59652344 -24.29101562 28.19304687 -23.92578125 27.77734375 C-19.72742218 22.98938462 -15.54860836 18.1845306 -11.375 13.375 C-10.82497314 12.74198975 -10.27494629 12.10897949 -9.70825195 11.45678711 C-6.42755615 7.67349562 -3.19295592 3.8576605 0 0 Z " fill="#F6F7F5" transform="translate(89,102)"/>
<path d="M0 0 C0.93106567 0.01617371 1.86213135 0.03234741 2.82141113 0.04901123 C3.87590454 0.06272766 4.93039795 0.07644409 6.0168457 0.09057617 C7.15955933 0.11649841 8.30227295 0.14242065 9.47961426 0.16912842 C10.6484314 0.18941101 11.81724854 0.2096936 13.02148438 0.23059082 C15.49639445 0.27622974 17.9712141 0.32701483 20.44592285 0.38250732 C24.24479196 0.46565165 28.04359216 0.52750991 31.84289551 0.58709717 C34.24266046 0.63399355 36.64240159 0.68212892 39.04211426 0.73162842 C40.18482788 0.74945374 41.3275415 0.76727905 42.50488281 0.78564453 C43.55937622 0.8119696 44.61386963 0.83829468 45.70031738 0.86541748 C46.63138306 0.88477356 47.56244873 0.90412964 48.52172852 0.92407227 C50.76086426 1.21600342 50.76086426 1.21600342 52.76086426 3.21600342 C51.75275192 3.2281337 51.75275192 3.2281337 50.72427368 3.24050903 C43.74913126 3.32635626 36.77427956 3.42585045 29.79943848 3.53338623 C27.19401927 3.57174424 24.58854586 3.60658487 21.98303223 3.63787842 C18.24471623 3.68338093 14.50677561 3.74139968 10.76867676 3.80194092 C9.59781525 3.81349213 8.42695374 3.82504333 7.22061157 3.83694458 C5.59915726 3.86674911 5.59915726 3.86674911 3.94494629 3.89715576 C2.51265182 3.91714127 2.51265182 3.91714127 1.05142212 3.93753052 C-1.43516221 4.00096273 -1.43516221 4.00096273 -3.23913574 6.21600342 C-3.86413574 4.34100342 -3.86413574 4.34100342 -4.23913574 2.21600342 C-2.23913574 0.21600342 -2.23913574 0.21600342 0 0 Z " fill="#C9CBE1" transform="translate(106.2391357421875,101.78399658203125)"/>
<path d="M0 0 C0.99 0.33 1.98 0.66 3 1 C1.625 3 1.625 3 0 5 C-0.66 5 -1.32 5 -2 5 C-1.87625 6.1446875 -1.87625 6.1446875 -1.75 7.3125 C-2 10 -2 10 -4 11.8125 C-4.66 12.204375 -5.32 12.59625 -6 13 C-6.66 12.67 -7.32 12.34 -8 12 C-7.67 12.99 -7.34 13.98 -7 15 C-8.65 16.32 -10.3 17.64 -12 19 C-12 18.34 -12 17.68 -12 17 C-12.66 16.67 -13.32 16.34 -14 16 C-13.61142822 15.58637207 -13.22285645 15.17274414 -12.82250977 14.74658203 C-11.06677485 12.87495442 -9.31460417 11.00002666 -7.5625 9.125 C-6.95083984 8.47402344 -6.33917969 7.82304688 -5.70898438 7.15234375 C-5.12568359 6.52714844 -4.54238281 5.90195312 -3.94140625 5.2578125 C-3.40201416 4.6817627 -2.86262207 4.10571289 -2.30688477 3.51220703 C-0.90528819 2.0159761 -0.90528819 2.0159761 0 0 Z " fill="#E4E6F0" transform="translate(134,51)"/>
<path d="M0 0 C0.99 1.32 1.98 2.64 3 4 C2.01 5.485 2.01 5.485 1 7 C0.34 7 -0.32 7 -1 7 C-1.33 7.99 -1.66 8.98 -2 10 C-5.57784777 12.22771654 -9.2285693 14.12677283 -13 16 C-8.93866463 10.40636594 -4.6208599 5.14036486 0 0 Z " fill="#EAEBF0" transform="translate(89,102)"/>
<path d="M0 0 C0.66 0.33 1.32 0.66 2 1 C1.58485103 5.8434046 -0.46208699 7.81587829 -4 11 C-4.33 11.33 -4.66 11.66 -5 12 C-6.66617115 12.04063832 -8.33388095 12.042721 -10 12 C-3.84965831 3.55353075 -3.84965831 3.55353075 0 0 Z " fill="#15146A" transform="translate(18,127)"/>
<path d="M0 0 C1.22589844 0.15275391 1.22589844 0.15275391 2.4765625 0.30859375 C3.41628906 0.43427734 3.41628906 0.43427734 4.375 0.5625 C4.705 1.5525 5.035 2.5425 5.375 3.5625 C4.715 3.5625 4.055 3.5625 3.375 3.5625 C3.375 4.5525 3.375 5.5425 3.375 6.5625 C0.075 6.2325 -3.225 5.9025 -6.625 5.5625 C-5.965 4.9025 -5.305 4.2425 -4.625 3.5625 C-5.285 3.2325 -5.945 2.9025 -6.625 2.5625 C-6.625 1.9025 -6.625 1.2425 -6.625 0.5625 C-4.10446405 -0.69776798 -2.7707902 -0.35624445 0 0 Z " fill="#02026B" transform="translate(290.625,59.4375)"/>
<path d="M0 0 C0.66 0 1.32 0 2 0 C3.65 3.63 5.3 7.26 7 11 C5.02 11.99 5.02 11.99 3 13 C2.566875 11.6078125 2.566875 11.6078125 2.125 10.1875 C1.1125 6.90208333 1.1125 6.90208333 -1 4 C-0.625 1.8125 -0.625 1.8125 0 0 Z " fill="#0A0965" transform="translate(181,45)"/>
<path d="M0 0 C0.66 0.99 1.32 1.98 2 3 C-1 6 -1 6 -2.5625 7.4375 C-4.15166178 9.16484976 -5.04386867 10.86709165 -6 13 C-7.32 12.34 -8.64 11.68 -10 11 C-9.44570312 10.45730469 -8.89140625 9.91460937 -8.3203125 9.35546875 C-7.23363281 8.28232422 -7.23363281 8.28232422 -6.125 7.1875 C-5.40570313 6.47980469 -4.68640625 5.77210937 -3.9453125 5.04296875 C-1.84641063 2.95600806 -1.84641063 2.95600806 0 0 Z " fill="#1D1D70" transform="translate(102,32)"/>
<path d="M0 0 C0.99 0 1.98 0 3 0 C1.63629701 2.99220268 0.05091917 5.29026529 -2.125 7.75 C-2.93324219 8.67039062 -2.93324219 8.67039062 -3.7578125 9.609375 C-4.16773437 10.06828125 -4.57765625 10.5271875 -5 11 C-5.66 10.67 -6.32 10.34 -7 10 C-6.15250816 7.45752447 -5.37334617 5.28891028 -4 3 C-3.01 2.67 -2.02 2.34 -1 2 C-0.67 1.34 -0.34 0.68 0 0 Z " fill="#101068" transform="translate(115,69)"/>
<path d="M0 0 C0.99 0.33 1.98 0.66 3 1 C2.07456291 2.34173403 1.13422595 3.67320159 0.1875 5 C-0.33457031 5.7425 -0.85664062 6.485 -1.39453125 7.25 C-1.92433594 7.8275 -2.45414062 8.405 -3 9 C-3.99 9 -4.98 9 -6 9 C-5.70381606 5.44579276 -5.19662957 4.19662957 -2.625 1.625 C-1.325625 0.820625 -1.325625 0.820625 0 0 Z " fill="#0E0D69" transform="translate(68,122)"/>
<path d="M0 0 C0.99 0.66 1.98 1.32 3 2 C2.2884375 2.6496875 2.2884375 2.6496875 1.5625 3.3125 C-0.23686957 5.02309613 -0.23686957 5.02309613 -1 8 C-1.99 8.66 -2.98 9.32 -4 10 C-5.32 9.67 -6.64 9.34 -8 9 C-5.36 6.03 -2.72 3.06 0 0 Z " fill="#14126B" transform="translate(105,105)"/>
<path d="M0 0 C0.66 0 1.32 0 2 0 C2.8638129 1.45264038 3.71580454 2.9123163 4.5625 4.375 C5.27599609 5.59316406 5.27599609 5.59316406 6.00390625 6.8359375 C6.33261719 7.55007812 6.66132813 8.26421875 7 9 C6.67 9.66 6.34 10.32 6 11 C5.01 11 4.02 11 3 11 C0.43383368 7.15075052 0.44902324 4.5650696 0 0 Z " fill="#12116C" transform="translate(196,74)"/>
<path d="M0 0 C1.32 0.66 2.64 1.32 4 2 C3.06409496 3.1055189 2.12620142 4.20935453 1.1875 5.3125 C0.66542969 5.92738281 0.14335938 6.54226562 -0.39453125 7.17578125 C-1.87172469 8.85424679 -3.40039131 10.43882034 -5 12 C-4.43244703 8.02712922 -3.17597408 5.3546267 -1 2 C-0.67 1.34 -0.34 0.68 0 0 Z " fill="#F1F3F5" transform="translate(97,108)"/>
<path d="M0 0 C-1.55603771 3.81936528 -3.95604931 6.26044438 -7 9 C-7.66 9 -8.32 9 -9 9 C-9 6 -9 6 -7.1875 3.9375 C-2.74193548 0 -2.74193548 0 0 0 Z " fill="#EBEDF4" transform="translate(78,59)"/>
<path d="M0 0 C0.99 0.33 1.98 0.66 3 1 C1.625 3 1.625 3 0 5 C-0.66 5 -1.32 5 -2 5 C-1.9175 5.763125 -1.835 6.52625 -1.75 7.3125 C-2 10 -2 10 -4 11.8125 C-4.66 12.204375 -5.32 12.59625 -6 13 C-6.33 12.01 -6.66 11.02 -7 10 C-5.56640625 7.51953125 -5.56640625 7.51953125 -3.5625 4.8125 C-2.90378906 3.91144531 -2.24507812 3.01039062 -1.56640625 2.08203125 C-1.04949219 1.39496094 -0.53257812 0.70789062 0 0 Z " fill="#EEEFF5" transform="translate(134,51)"/>
<path d="M0 0 C0.93065133 2.60582371 1.14917407 3.64198224 0.0625 6.25 C-0.4634375 7.11625 -0.4634375 7.11625 -1 8 C-2.98 8 -4.96 8 -7 8 C-6.02133662 6.85373678 -5.04205413 5.70800212 -4.0625 4.5625 C-3.51722656 3.92441406 -2.97195312 3.28632813 -2.41015625 2.62890625 C-1.63204305 1.73008851 -0.84063472 0.84063472 0 0 Z " fill="#17146A" transform="translate(82,131)"/>
<path d="M0 0 C0.33 0.99 0.66 1.98 1 3 C0.505 3.433125 0.01 3.86625 -0.5 4.3125 C-2.33218192 5.99740483 -2.33218192 5.99740483 -2 9 C-4.31 9.66 -6.62 10.32 -9 11 C-8.06558465 9.72689688 -7.12732889 8.456612 -6.1875 7.1875 C-5.66542969 6.47980469 -5.14335938 5.77210937 -4.60546875 5.04296875 C-3.16871123 3.21468607 -1.68184237 1.60103312 0 0 Z " fill="#181766" transform="translate(81,56)"/>
<path d="M0 0 C2.97 0.495 2.97 0.495 6 1 C6 1.66 6 2.32 6 3 C5.01 3 4.02 3 3 3 C4.32 4.32 5.64 5.64 7 7 C6.34 7.66 5.68 8.32 5 9 C5 8.34 5 7.68 5 7 C4.01 7 3.02 7 2 7 C1.34 4.69 0.68 2.38 0 0 Z " fill="#0C0C68" transform="translate(203,59)"/>
<path d="M0 0 C0 4.25866406 -1.21704663 6.17099055 -4.125 9.25 C-4.74375 9.8275 -5.3625 10.405 -6 11 C-6.99 10.67 -7.98 10.34 -9 10 C-6.03 6.7 -3.06 3.4 0 0 Z " fill="#E4E6F0" transform="translate(322,15)"/>
<path d="M0 0 C0.66 0.33 1.32 0.66 2 1 C2.625 3.0625 2.625 3.0625 3 5 C-0.465 6.485 -0.465 6.485 -4 8 C-3.50168276 4.31245243 -2.89932357 2.39509338 0 0 Z " fill="#0F0F6B" transform="translate(296,125)"/>
<path d="M0 0 C0.33 0.99 0.66 1.98 1 3 C-1.12780579 5.34058637 -3.11562221 6.70700306 -6 8 C-6.33 6.68 -6.66 5.36 -7 4 C-4.69 2.68 -2.38 1.36 0 0 Z " fill="#EEEFF2" transform="translate(300,128)"/>
<path d="M0 0 C2.56687367 3.8503105 1.83288724 5.58569763 1 10 C-0.32 10.33 -1.64 10.66 -3 11 C-2.01 7.37 -1.02 3.74 0 0 Z " fill="#E6E9EF" transform="translate(319,100)"/>
<path d="M0 0 C0 0.99 0 1.98 0 3 C-3.82320557 4.42258812 -6.91281305 5.24042276 -11 5 C-10.67 4.34 -10.34 3.68 -10 3 C-8.68 3 -7.36 3 -6 3 C-6 2.34 -6 1.68 -6 1 C-3.92446352 0.4465236 -2.15634036 0 0 0 Z " fill="#12106A" transform="translate(287,132)"/>
<path d="M0 0 C2.32472205 2.85306797 3.7508258 5.54074837 5 9 C4.01 8.67 3.02 8.34 2 8 C2 7.34 2 6.68 2 6 C1.34 6 0.68 6 0 6 C-0.33 6.66 -0.66 7.32 -1 8 C-2.2077558 4.37673261 -1.54311128 3.35853631 0 0 Z " fill="#0D0C69" transform="translate(217,113)"/>
<path d="M0 0 C1.5625 1.1875 1.5625 1.1875 3 3 C2.6875 5.6875 2.6875 5.6875 2 8 C2.99 8.33 3.98 8.66 5 9 C4.01 9.66 3.02 10.32 2 11 C0.68 8.03 -0.64 5.06 -2 2 C-1.34 1.34 -0.68 0.68 0 0 Z " fill="#111068" transform="translate(151,75)"/>
<path d="M0 0 C1.22589844 0.15275391 1.22589844 0.15275391 2.4765625 0.30859375 C3.41628906 0.43427734 3.41628906 0.43427734 4.375 0.5625 C4.045 1.2225 3.715 1.8825 3.375 2.5625 C0.075 2.5625 -3.225 2.5625 -6.625 2.5625 C-6.625 1.9025 -6.625 1.2425 -6.625 0.5625 C-4.10446405 -0.69776798 -2.7707902 -0.35624445 0 0 Z " fill="#0F0E6A" transform="translate(290.625,59.4375)"/>
<path d="M0 0 C0.66 1.32 1.32 2.64 2 4 C-0.93828597 6.50298434 -3.17902761 7.46930939 -7 8 C-6.02133662 6.85373678 -5.04205413 5.70800212 -4.0625 4.5625 C-3.51722656 3.92441406 -2.97195313 3.28632813 -2.41015625 2.62890625 C-1.63204305 1.73008851 -0.84063472 0.84063472 0 0 Z " fill="#E3E6F0" transform="translate(312,26)"/>
<path d="M0 0 C3.16115776 1.36983503 3.9927092 1.9890638 6 5 C4.1875 5.6875 4.1875 5.6875 2 6 C0.25 4.5625 0.25 4.5625 -1 3 C-0.67 2.01 -0.34 1.02 0 0 Z " fill="#0E0C67" transform="translate(309,67)"/>
<path d="M0 0 C1.89213369 2.38573379 3.02391783 4.07175348 4 7 C3.01 7 2.02 7 1 7 C1 6.34 1 5.68 1 5 C0.01 5 -0.98 5 -2 5 C-2 3.68 -2 2.36 -2 1 C-1.34 0.67 -0.68 0.34 0 0 Z " fill="#19176D" transform="translate(227,132)"/>
<path d="M0 0 C3 1 3 1 4 3 C3.34 3 2.68 3 2 3 C2.33 3.99 2.66 4.98 3 6 C2.1646875 5.566875 2.1646875 5.566875 1.3125 5.125 C-1.08494645 3.9586747 -3.51596939 2.9660119 -6 2 C-5.38125 1.855625 -4.7625 1.71125 -4.125 1.5625 C-1.96741678 1.06847775 -1.96741678 1.06847775 0 0 Z " fill="#171569" transform="translate(278,84)"/>
<path d="M0 0 C0.66 0.99 1.32 1.98 2 3 C2.66 3.66 3.32 4.32 4 5 C4.66 5.66 5.32 6.32 6 7 C4.35 7.33 2.7 7.66 1 8 C0.01 5.69 -0.98 3.38 -2 1 C-1.34 0.67 -0.68 0.34 0 0 Z " fill="#101065" transform="translate(192,34)"/>
<path d="M0 0 C2.15377564 2.62198774 3.40072174 4.64404172 4 8 C2.68 7.67 1.36 7.34 0 7 C-0.38133299 5.0085944 -0.71325582 3.00720923 -1 1 C-0.67 0.67 -0.34 0.34 0 0 Z " fill="#1E1D74" transform="translate(223,124)"/>
<path d="M0 0 C1.32 0.66 2.64 1.32 4 2 C2.515 4.475 2.515 4.475 1 7 C0.34 6.67 -0.32 6.34 -1 6 C-1.042721 4.33388095 -1.04063832 2.66617115 -1 1 C-0.67 0.67 -0.34 0.34 0 0 Z " fill="#121069" transform="translate(72,115)"/>
<path d="M0 0 C1.32 0.66 2.64 1.32 4 2 C3.67 2.66 3.34 3.32 3 4 C2.34 3.67 1.68 3.34 1 3 C1 3.66 1 4.32 1 5 C0.01 5.33 -0.98 5.66 -2 6 C-2.33 5.01 -2.66 4.02 -3 3 C-2.01 2.01 -1.02 1.02 0 0 Z " fill="#0A086C" transform="translate(144,58)"/>
<path d="M0 0 C0.66 0.33 1.32 0.66 2 1 C1.3503125 1.5878125 1.3503125 1.5878125 0.6875 2.1875 C-1.26366224 4.28319278 -2.59010162 6.51589333 -4 9 C-4.66 8.34 -5.32 7.68 -6 7 C-4.02 4.69 -2.04 2.38 0 0 Z " fill="#E4E6F0" transform="translate(70,124)"/>
<path d="M0 0 C1.32 0.33 2.64 0.66 4 1 C3.67 1.66 3.34 2.32 3 3 C3.66 3 4.32 3 5 3 C5 4.98 5 6.96 5 9 C2.67527795 6.14693203 1.2491742 3.45925163 0 0 Z " fill="#16156C" transform="translate(228,109)"/>
<path d="M0 0 C0 3.57575896 -1.08840607 5.05295935 -3 8 C-4.32 7.67 -5.64 7.34 -7 7 C-4.69 4.69 -2.38 2.38 0 0 Z " fill="#DEE0EC" transform="translate(102,88)"/>
<path d="M0 0 C1.65 0 3.3 0 5 0 C4.34 1.32 3.68 2.64 3 4 C2.01 4 1.02 4 0 4 C0 2.68 0 1.36 0 0 Z " fill="#0B0A64" transform="translate(325,6)"/>
<path d="M0 0 C0.66 0.99 1.32 1.98 2 3 C1.01 4.32 0.02 5.64 -1 7 C-1.99 6.67 -2.98 6.34 -4 6 C-2.68 4.02 -1.36 2.04 0 0 Z " fill="#17166C" transform="translate(31,112)"/>
<path d="M0 0 C0.99 0 1.98 0 3 0 C4.4606285 2.64738916 5 3.89448334 5 7 C4.01 7.495 4.01 7.495 3 8 C0 2.25 0 2.25 0 0 Z " fill="#E0E0EA" transform="translate(204,86)"/>
<path d="M0 0 C2.15377564 2.62198774 3.40072174 4.64404172 4 8 C2.0625 7.6875 2.0625 7.6875 0 7 C-1.04449911 3.86650268 -0.93423645 3.01031744 0 0 Z " fill="#1D1A73" transform="translate(173,27)"/>
<path d="M0 0 C0.33 0.99 0.66 1.98 1 3 C0.34 3.66 -0.32 4.32 -1 5 C-0.67 5.66 -0.34 6.32 0 7 C-0.99 6.67 -1.98 6.34 -3 6 C-4.1875 3.4375 -4.1875 3.4375 -5 1 C-3.35 0.67 -1.7 0.34 0 0 Z " fill="#F1F2F6" transform="translate(171,12)"/>
<path d="M0 0 C0.33 0.99 0.66 1.98 1 3 C-0.65 4.65 -2.3 6.3 -4 8 C-4 7.01 -4 6.02 -4 5 C-3.34 5 -2.68 5 -2 5 C-2.33 4.01 -2.66 3.02 -3 2 C-2.01 1.34 -1.02 0.68 0 0 Z " fill="#15146F" transform="translate(104,82)"/>
<path d="M0 0 C1.9375 0.6875 1.9375 0.6875 4 2 C4.75 4.625 4.75 4.625 5 7 C4.01 7.495 4.01 7.495 3 8 C0 2.25 0 2.25 0 0 Z " fill="#16156B" transform="translate(211,75)"/>
<path d="M0 0 C0.66 0.66 1.32 1.32 2 2 C0.35 3.65 -1.3 5.3 -3 7 C-3.1875 4.625 -3.1875 4.625 -3 2 C-2.01 1.34 -1.02 0.68 0 0 Z " fill="#131368" transform="translate(125,58)"/>
<path d="M0 0 C0.66 0.33 1.32 0.66 2 1 C1 4 1 4 -1.4375 5.75 C-2.7059375 6.36875 -2.7059375 6.36875 -4 7 C-4.66 6.67 -5.32 6.34 -6 6 C-4.02 4.02 -2.04 2.04 0 0 Z " fill="#E4E5F2" transform="translate(329,8)"/>
<path d="M0 0 C0.99 1.32 1.98 2.64 3 4 C2.67 4.66 2.34 5.32 2 6 C1.01 6 0.02 6 -1 6 C-1.625 4.125 -1.625 4.125 -2 2 C-1.34 1.34 -0.68 0.68 0 0 Z " fill="#E3E5EF" transform="translate(238,129)"/>
<path d="M0 0 C1.32 0.33 2.64 0.66 4 1 C2.68 2.32 1.36 3.64 0 5 C-0.66 4.67 -1.32 4.34 -2 4 C-2 3.34 -2 2.68 -2 2 C-1.34 2 -0.68 2 0 2 C0 1.34 0 0.68 0 0 Z " fill="#EAEBEE" transform="translate(18,122)"/>
<path d="M0 0 C0.33 0.66 0.66 1.32 1 2 C1.99 2 2.98 2 4 2 C3.67 3.65 3.34 5.3 3 7 C1.68 5.68 0.36 4.36 -1 3 C-0.67 2.01 -0.34 1.02 0 0 Z " fill="#0A086A" transform="translate(77,107)"/>
<path d="M0 0 C0.99 0 1.98 0 3 0 C3.66 1.98 4.32 3.96 5 6 C3.68 5.67 2.36 5.34 1 5 C0.67 3.35 0.34 1.7 0 0 Z " fill="#16156B" transform="translate(190,64)"/>
<path d="M0 0 C1.32 0.66 2.64 1.32 4 2 C2.93453047 4.13093906 1.70840281 5.36587557 0 7 C-1.04449911 3.86650268 -0.93423645 3.01031744 0 0 Z " fill="#EFF0F3" transform="translate(200,59)"/>
<path d="M0 0 C0.66 0 1.32 0 2 0 C1.6875 1.875 1.6875 1.875 1 4 C0.01 4.66 -0.98 5.32 -2 6 C-2 2 -2 2 0 0 Z " fill="#ECECF0" transform="translate(119,10)"/>
</svg>
