<?xml version="1.0" encoding="UTF-8"?>
<svg version="1.1" xmlns="http://www.w3.org/2000/svg" width="186" height="187">
<path d="M0 0 C61.38 0 122.76 0 186 0 C186 61.71 186 123.42 186 187 C124.62 187 63.24 187 0 187 C0 125.29 0 63.58 0 0 Z " fill="#FEFEFC" transform="translate(0,0)"/>
<path d="M0 0 C8.68936081 5.77556317 14.38218498 11.80712848 19.03515625 21.1640625 C21.95229872 24.55224121 21.95229872 24.55224121 31.296875 24.421875 C31.296875 53.791875 31.296875 83.161875 31.296875 113.421875 C22.716875 113.421875 14.136875 113.421875 5.296875 113.421875 C5.296875 110.451875 5.296875 107.481875 5.296875 104.421875 C4.6678125 104.82019531 4.03875 105.21851563 3.390625 105.62890625 C-8.65000972 113.08176901 -19.93770572 116.5291998 -34.1953125 113.73828125 C-41.24715926 111.73887529 -46.94562726 108.93267047 -52.703125 104.421875 C-53.31671875 103.97070312 -53.9303125 103.51953125 -54.5625 103.0546875 C-67.2710304 93.10154644 -73.50147346 76.96137207 -75.48779297 61.37988281 C-77.36390118 44.32048615 -72.90744719 27.37097042 -62.56640625 13.5703125 C-46.64754737 -4.82110911 -22.30069526 -13.01948105 0 0 Z " fill="#5D97C2" transform="translate(122.703125,39.578125)"/>
<path d="M0 0 C11.88 0 23.76 0 36 0 C36 4.95 36 9.9 36 15 C37.485 13.9275 38.97 12.855 40.5 11.75 C55.18540014 1.57058038 72.40981106 -2.80935552 90.19482422 0.39550781 C103.23804506 3.40246887 115.46808442 9.55929892 125 19 C125.86625 19.825 126.7325 20.65 127.625 21.5 C146.85650462 41.74368907 153.04372051 65.8023508 152.37890625 93.109375 C151.79110468 106.76700891 147.98378077 126.01621923 138 136 C138 109.27 138 82.54 138 55 C134.37 55 130.74 55 127 55 C124.2734375 52.4375 124.2734375 52.4375 122.375 49 C121.64540316 47.79418164 120.90703065 46.59363125 120.16015625 45.3984375 C119.80066895 44.81288086 119.44118164 44.22732422 119.07080078 43.62402344 C112.48714112 33.6389564 99.25189451 27.68816592 88 25 C74.43054045 23.78107893 62.19397372 26.7814636 51.26171875 35.078125 C42.43319017 42.74112704 36.08892693 51.00750808 32 62 C31.73960938 62.69158203 31.47921875 63.38316406 31.2109375 64.09570312 C28.75968264 71.26854174 28.45962837 78.08623732 28.5 85.625 C28.50572021 86.8625 28.51144043 88.1 28.51733398 89.375 C28.85799775 106.88305273 34.66754785 122.61335666 47.234375 135.24609375 C58.58843726 145.13682189 70.79129559 149.24691908 85.7734375 148.46484375 C93.41670456 147.78800645 99.89567139 145.61127854 106 141 C106.66 141 107.32 141 108 141 C108 143.31 108 145.62 108 148 C114.6 148 121.2 148 128 148 C126.21398196 151.57203608 124.93313183 153.43350965 122 156 C121.34 156 120.68 156 120 156 C120 156.66 120 157.32 120 158 C104.29999896 169.99342407 85.88752134 173.62445443 66.5234375 171.64453125 C52.61275201 169.02087032 39.68298563 161.14492623 30 151 C29.30777344 150.31550781 28.61554687 149.63101563 27.90234375 148.92578125 C21.38490509 142.13207351 15.30023757 133.20095029 13 124 C8.71 124 4.42 124 0 124 C0 83.08 0 42.16 0 0 Z " fill="#C2DF4E" transform="translate(18,7)"/>
<path d="M0 0 C6.97689515 5.03251454 11.59738617 10.65193498 14 19 C15.05274389 28.53590107 13.88439471 37.28878599 8.421875 45.3203125 C4.05267576 50.65388454 -0.06710453 54.51657111 -7.05078125 55.375 C-13.80591864 55.62432456 -19.64279767 55.40380192 -25 51 C-32.30048424 43.75241782 -35.90294747 36.31618941 -36.4375 26.0625 C-36.07809891 16.89058418 -32.53976948 9.44691704 -26.2109375 2.8828125 C-18.31399178 -3.84214835 -9.14690878 -4.94804208 0 0 Z " fill="#FBFDFD" transform="translate(110,68)"/>
<path d="M0 0 C4.97219811 4.74226988 9.20230358 10.21563558 12.71484375 16.12109375 C12.71484375 16.78109375 12.71484375 17.44109375 12.71484375 18.12109375 C16.01484375 18.12109375 19.31484375 18.12109375 22.71484375 18.12109375 C22.71484375 48.15109375 22.71484375 78.18109375 22.71484375 109.12109375 C22.38484375 109.12109375 22.05484375 109.12109375 21.71484375 109.12109375 C21.71484375 79.75109375 21.71484375 50.38109375 21.71484375 20.12109375 C18.41484375 20.12109375 15.11484375 20.12109375 11.71484375 20.12109375 C9.015625 17.5234375 9.015625 17.5234375 7.02734375 14.05859375 C6.28765862 12.85491987 5.5428722 11.65436567 4.79296875 10.45703125 C4.1071875 9.35617188 3.42140625 8.2553125 2.71484375 7.12109375 C-3.89412777 -1.15474226 -13.77900303 -7.27379951 -24.28515625 -8.87890625 C-40.07009024 -10.22222743 -51.71580631 -7.98621857 -64.28515625 2.12109375 C-65.22488281 2.87132812 -65.22488281 2.87132812 -66.18359375 3.63671875 C-75.88517427 12.32863252 -80.40581577 24.79035882 -83.28515625 37.12109375 C-83.47722656 37.78367188 -83.66929688 38.44625 -83.8671875 39.12890625 C-87.36058995 55.77970297 -81.87874185 73.04640571 -73.28515625 87.12109375 C-66.00381424 98.25468886 -55.86123823 105.511863 -42.91015625 108.70703125 C-30.43581652 110.67470984 -19.90814635 108.62306604 -9.1953125 102.20703125 C-7.28515625 101.12109375 -7.28515625 101.12109375 -4.28515625 100.12109375 C-4.28515625 103.42109375 -4.28515625 106.72109375 -4.28515625 110.12109375 C1.98484375 110.12109375 8.25484375 110.12109375 14.71484375 110.12109375 C13.71056815 115.14247173 13.31723413 115.98352794 9.71484375 119.12109375 C9.05484375 118.79109375 8.39484375 118.46109375 7.71484375 118.12109375 C10.68484375 114.65609375 10.68484375 114.65609375 13.71484375 111.12109375 C7.11484375 111.12109375 0.51484375 111.12109375 -6.28515625 111.12109375 C-6.28515625 108.81109375 -6.28515625 106.50109375 -6.28515625 104.12109375 C-6.74664062 104.44722656 -7.208125 104.77335937 -7.68359375 105.109375 C-18.32510833 112.23876915 -29.71306883 113.69127627 -42.28515625 112.12109375 C-56.14393843 109.32518662 -67.11269353 101.21589817 -75.22265625 89.74609375 C-86.50776425 72.38910699 -88.96014386 52.89692683 -85.8984375 32.55126953 C-84.90853164 28.13925911 -83.28090095 24.16336546 -81.28515625 20.12109375 C-80.78886719 19.074375 -80.29257813 18.02765625 -79.78125 16.94921875 C-72.42653748 2.98412606 -60.34176992 -7.18914134 -45.28515625 -11.87890625 C-28.57472216 -15.41380577 -13.12835955 -10.79442896 0 0 Z " fill="#EAF9E1" transform="translate(132.28515625,43.87890625)"/>
<path d="M0 0 C10.6461377 0.19048755 21.3768366 7.60221584 28.66796875 14.8359375 C39.1875 26.26498777 39.1875 26.26498777 39.1875 30.375 C42.4875 30.375 45.7875 30.375 49.1875 30.375 C49.1875 60.405 49.1875 90.435 49.1875 121.375 C48.8575 121.375 48.5275 121.375 48.1875 121.375 C48.1875 92.005 48.1875 62.635 48.1875 32.375 C44.8875 32.375 41.5875 32.375 38.1875 32.375 C35.48828125 29.77734375 35.48828125 29.77734375 33.5 26.3125 C32.76031487 25.10882612 32.01552845 23.90827192 31.265625 22.7109375 C30.57984375 21.61007813 29.8940625 20.50921875 29.1875 19.375 C22.47193648 10.96568816 12.75384385 5.30138106 2.1875 3.375 C-2.81168763 2.87261858 -7.79091803 2.56916784 -12.8125 2.375 C-12.8125 2.045 -12.8125 1.715 -12.8125 1.375 C-8.5504674 0.82251429 -4.27673187 0.42066215 0 0 Z " fill="#D1E4E3" transform="translate(105.8125,31.625)"/>
<path d="M0 0 C3.96 0 7.92 0 12 0 C12.05534912 1.92827637 12.11069824 3.85655273 12.16772461 5.84326172 C12.35144781 12.20564805 12.53948696 18.56789529 12.73049068 24.93006706 C12.84616679 28.78843428 12.96009534 32.64683678 13.07006836 36.50537109 C13.17621004 40.22724279 13.28689214 43.94895398 13.40075874 47.67059708 C13.44345282 49.09234961 13.48449493 50.51415272 13.5238781 51.93600082 C13.57920643 53.9234425 13.64088929 55.91070422 13.70288086 57.89794922 C13.73619003 59.03046112 13.76949921 60.16297302 13.80381775 61.32980347 C13.82774631 63.97255391 13.82774631 63.97255391 15 66 C15.66 66 16.32 66 17 66 C17.268125 64.865625 17.53625 63.73125 17.8125 62.5625 C18.204375 61.386875 18.59625 60.21125 19 59 C20.485 58.505 20.485 58.505 22 58 C19.90591324 66.65555861 16.11688697 74.17227518 12 82 C11.67 82 11.34 82 11 82 C11 55.27 11 28.54 11 1 C7.37 1 3.74 1 0 1 C0 0.67 0 0.34 0 0 Z " fill="#CBE477" transform="translate(145,61)"/>
<path d="M0 0 C5.26477254 7.8971588 4.30626375 18.37589443 4.25 27.5 C4.25773438 28.75425781 4.26546875 30.00851563 4.2734375 31.30078125 C4.25848481 38.44068953 3.77023735 45.072283 2 52 C1.67 52 1.34 52 1 52 C0.97313447 50.02090602 0.95366625 48.04171029 0.9375 46.0625 C0.92589844 44.96035156 0.91429687 43.85820313 0.90234375 42.72265625 C1 40 1 40 2 39 C2.09934776 37.31614925 2.1308005 35.62818403 2.1328125 33.94140625 C2.13474609 32.40323242 2.13474609 32.40323242 2.13671875 30.83398438 C2.13285156 29.75439453 2.12898437 28.67480469 2.125 27.5625 C2.12886719 26.48677734 2.13273438 25.41105469 2.13671875 24.30273438 C2.13542969 23.27599609 2.13414062 22.24925781 2.1328125 21.19140625 C2.13168457 20.24467041 2.13055664 19.29793457 2.12939453 18.32250977 C2.15264716 15.97465527 2.15264716 15.97465527 1 14 C0.76970044 11.62876754 0.58880058 9.25258057 0.4375 6.875 C0.35371094 5.59367187 0.26992187 4.31234375 0.18359375 2.9921875 C0.12300781 2.00476563 0.06242188 1.01734375 0 0 Z " fill="#C8DC6D" transform="translate(166,65)"/>
<path d="M0 0 C0.66 0.66 1.32 1.32 2 2 C0.35 2 -1.3 2 -3 2 C-3 1.34 -3 0.68 -3 0 C-3.96421875 -0.13277344 -4.9284375 -0.26554688 -5.921875 -0.40234375 C-7.18515625 -0.57894531 -8.4484375 -0.75554688 -9.75 -0.9375 C-11.00296875 -1.11152344 -12.2559375 -1.28554687 -13.546875 -1.46484375 C-17 -2 -17 -2 -18.93164062 -2.52734375 C-21.20387635 -3.04658931 -23.21769277 -3.11339397 -25.546875 -3.09765625 C-26.39121094 -3.09443359 -27.23554687 -3.09121094 -28.10546875 -3.08789062 C-29.41451172 -3.07532227 -29.41451172 -3.07532227 -30.75 -3.0625 C-31.63816406 -3.05798828 -32.52632813 -3.05347656 -33.44140625 -3.04882812 C-35.62767329 -3.037074 -37.81380179 -3.02064249 -40 -3 C-40 -3.33 -40 -3.66 -40 -4 C-26.5921216 -7.27807849 -12.55104382 -5.34431543 0 0 Z " fill="#CADF74" transform="translate(122,12)"/>
<path d="M0 0 C1.07350708 0.24447876 1.07350708 0.24447876 2.16870117 0.49389648 C4.95480197 0.99192071 7.47462208 1.1141835 10.30078125 1.09765625 C11.27724609 1.09443359 12.25371094 1.09121094 13.25976562 1.08789062 C14.77086914 1.07532227 14.77086914 1.07532227 16.3125 1.0625 C17.33923828 1.05798828 18.36597656 1.05347656 19.42382812 1.04882812 C21.94927882 1.03708184 24.47460905 1.02065565 27 1 C25.39299585 2.92554101 24.50203801 3.90679231 21.99462891 4.37231445 C20.87193604 4.36784302 20.87193604 4.36784302 19.7265625 4.36328125 C18.9015625 4.36263672 18.0765625 4.36199219 17.2265625 4.36132812 C16.36804688 4.34521484 15.50953125 4.32910156 14.625 4.3125 C13.34882812 4.31733398 13.34882812 4.31733398 12.046875 4.32226562 C7.60307051 4.28419565 4.03513463 4.08398928 0 2 C0 1.34 0 0.68 0 0 Z " fill="#C5DD6B" transform="translate(85,154)"/>
<path d="M0 0 C6.6 0 13.2 0 20 0 C17.9957983 4.0084034 16.50944037 5.41409657 13 8 C12.957279 6.33388095 12.95936168 4.66617115 13 3 C13.33 2.67 13.66 2.34 14 2 C7.07 1.505 7.07 1.505 0 1 C0 0.67 0 0.34 0 0 Z " fill="#CFE57A" transform="translate(126,155)"/>
<path d="M0 0 C-0.33 0.66 -0.66 1.32 -1 2 C-1.61746094 1.95359375 -2.23492187 1.9071875 -2.87109375 1.859375 C-10.88067692 1.5180229 -16.38728617 3.59152411 -23 8 C-22.67 6.35 -22.34 4.7 -22 3 C-14.5345605 0.22523488 -7.93285519 -0.36801906 0 0 Z " fill="#6B97B8" transform="translate(106,64)"/>
<path d="M0 0 C0 2.97 0 5.94 0 9 C-0.33 9 -0.66 9 -1 9 C-1 7.02 -1 5.04 -1 3 C-1.61488281 3.44472656 -2.22976562 3.88945312 -2.86328125 4.34765625 C-4.07564453 5.19650391 -4.07564453 5.19650391 -5.3125 6.0625 C-6.51326172 6.91521484 -6.51326172 6.91521484 -7.73828125 7.78515625 C-8.48464844 8.18605469 -9.23101562 8.58695313 -10 9 C-10.99 8.67 -11.98 8.34 -13 8 C-10.83676753 5.68757908 -8.62352196 3.9843604 -5.9375 2.3125 C-5.24527344 1.87550781 -4.55304688 1.43851563 -3.83984375 0.98828125 C-2 0 -2 0 0 0 Z " fill="#D4EAE3" transform="translate(128,144)"/>
<path d="M0 0 C6.21773909 0.28785829 11.88098267 1.21297188 17 5 C17.33 5.99 17.66 6.98 18 8 C13.78224268 6.64474464 9.70578678 5.09799886 5.625 3.375 C4.56539063 2.92898437 3.50578125 2.48296875 2.4140625 2.0234375 C1.61742188 1.68570312 0.82078125 1.34796875 0 1 C0 0.67 0 0.34 0 0 Z " fill="#F3FBD1" transform="translate(114,9)"/>
<path d="M0 0 C0 1.65 0 3.3 0 5 C-3.75399798 6.2039337 -7.33217412 6.09877617 -11.25 6.0625 C-12.51328125 6.05347656 -13.7765625 6.04445312 -15.078125 6.03515625 C-16.04234375 6.02355469 -17.0065625 6.01195312 -18 6 C-18 5.67 -18 5.34 -18 5 C-11.07 4.01 -11.07 4.01 -4 3 C-4 2.34 -4 1.68 -4 1 C-2 0 -2 0 0 0 Z " fill="#729BBF" transform="translate(110,148)"/>
<path d="M0 0 C0.66 0.33 1.32 0.66 2 1 C1.01 2.485 1.01 2.485 0 4 C-0.99 4 -1.98 4 -3 4 C-3 4.66 -3 5.32 -3 6 C-4.62102968 7.71108689 -6.29503463 9.37253306 -8 11 C-8.763125 11.763125 -9.52625 12.52625 -10.3125 13.3125 C-11.1478125 14.1478125 -11.1478125 14.1478125 -12 15 C-10.23188872 8.71338212 -5.3319351 3.5546234 0 0 Z " fill="#E3F5FB" transform="translate(89,67)"/>
<path d="M0 0 C0.99 0 1.98 0 3 0 C1.51095825 3.89608498 -0.24378713 7.59097018 -2.125 11.3125 C-2.66382813 12.38113281 -3.20265625 13.44976562 -3.7578125 14.55078125 C-4.37269531 15.76314453 -4.37269531 15.76314453 -5 17 C-6.34581972 12.96254085 -5.19157055 11.27844375 -3.625 7.375 C-3.16351563 6.20710938 -2.70203125 5.03921875 -2.2265625 3.8359375 C-1 1 -1 1 0 0 Z " fill="#C4DC65" transform="translate(55,52)"/>
<path d="M0 0 C-1.93625098 0.98163422 -3.87404539 1.96022454 -5.8125 2.9375 C-7.43091797 3.75541016 -7.43091797 3.75541016 -9.08203125 4.58984375 C-12 6 -12 6 -15 7 C-14.67 5.68 -14.34 4.36 -14 3 C-13.360625 2.87625 -12.72125 2.7525 -12.0625 2.625 C-11.0415625 2.315625 -11.0415625 2.315625 -10 2 C-9.67 1.34 -9.34 0.68 -9 0 C-5.58777852 -1.01444422 -3.37896371 -0.95821359 0 0 Z " fill="#C2DC67" transform="translate(84,34)"/>
<path d="M0 0 C0.66 0 1.32 0 2 0 C1.57316761 1.58624235 1.13303842 3.1689098 0.6875 4.75 C0.44386719 5.63171875 0.20023438 6.5134375 -0.05078125 7.421875 C-1.02125331 10.05772505 -2.21005644 11.85407326 -4 14 C-4 12.02 -4 10.04 -4 8 C-3.67 8 -3.34 8 -3 8 C-2.690625 6.865625 -2.38125 5.73125 -2.0625 4.5625 C-1 1 -1 1 0 0 Z " fill="#C4DC66" transform="translate(165,119)"/>
<path d="M0 0 C0 0.66 0 1.32 0 2 C0.66 2.33 1.32 2.66 2 3 C-4.27 2.67 -10.54 2.34 -17 2 C-17 1.67 -17 1.34 -17 1 C-11.29014022 0.25983299 -5.75813575 -0.10469338 0 0 Z " fill="#D3E8E5" transform="translate(110,32)"/>
<path d="M0 0 C4.95 2.31 9.9 4.62 15 7 C11.52128379 8.15957207 10.65780355 7.77456651 7.3125 6.5625 C6.50425781 6.27503906 5.69601563 5.98757812 4.86328125 5.69140625 C3.94095703 5.34916016 3.94095703 5.34916016 3 5 C3 4.34 3 3.68 3 3 C2.01 2.67 1.02 2.34 0 2 C0 1.34 0 0.68 0 0 Z " fill="#F6FCD9" transform="translate(58,167)"/>
<path d="M0 0 C-0.99 1.98 -1.98 3.96 -3 6 C-7.875 3.25 -7.875 3.25 -9 1 C-3.375 -1.125 -3.375 -1.125 0 0 Z " fill="#C6DF62" transform="translate(61,160)"/>
<path d="M0 0 C3.55420724 0.29618394 4.80337043 0.80337043 7.375 3.375 C8.179375 4.674375 8.179375 4.674375 9 6 C8.67 6.99 8.34 7.98 8 9 C6.66368764 7.6905332 5.33102075 6.37734515 4 5.0625 C3.2575 4.33160156 2.515 3.60070312 1.75 2.84765625 C0 1 0 1 0 0 Z " fill="#C6DD67" transform="translate(43,152)"/>
<path d="M0 0 C5.54742769 2.48677793 7.44111601 5.51667716 10 11 C9.01 11 8.02 11 7 11 C5.17578125 8.84765625 5.17578125 8.84765625 3.3125 6.0625 C2.68988281 5.14597656 2.06726562 4.22945312 1.42578125 3.28515625 C0 1 0 1 0 0 Z " fill="#729BBE" transform="translate(56,127)"/>
<path d="M0 0 C1.94566808 2.91850212 2.5152457 4.57622848 3.1875 7.9375 C3.36667969 8.79214844 3.54585937 9.64679688 3.73046875 10.52734375 C4.00123705 13.01134859 3.77059444 14.64449502 3 17 C0.57520264 13.36280395 0.61337423 11.14296518 0.375 6.8125 C0.30023438 5.54019531 0.22546875 4.26789063 0.1484375 2.95703125 C0.09945312 1.98121094 0.05046875 1.00539063 0 0 Z " fill="#CCE17C" transform="translate(166,65)"/>
<path d="M0 0 C0.66 0 1.32 0 2 0 C2 2.31 2 4.62 2 7 C1.34 7 0.68 7 0 7 C-0.33 6.01 -0.66 5.02 -1 4 C-2.65 4.33 -4.3 4.66 -6 5 C-5.195625 4.360625 -4.39125 3.72125 -3.5625 3.0625 C-1.7249496 1.59396498 -1.7249496 1.59396498 0 0 Z " fill="#CDDF7B" transform="translate(124,148)"/>
<path d="M0 0 C3.96 0.33 7.92 0.66 12 1 C12 1.66 12 2.32 12 3 C8.37 3 4.74 3 1 3 C0.67 2.01 0.34 1.02 0 0 Z " fill="#D7EEEF" transform="translate(143,61)"/>
<path d="M0 0 C0 3.63151113 -1.01440206 5.10282446 -2.875 8.1875 C-3.40867187 9.08855469 -3.94234375 9.98960938 -4.4921875 10.91796875 C-4.98976562 11.60503906 -5.48734375 12.29210938 -6 13 C-6.66 13 -7.32 13 -8 13 C-6.40956621 7.91061189 -3.2553049 4.12543357 0 0 Z " fill="#719CBB" transform="translate(63,50)"/>
<path d="M0 0 C-0.33 0.99 -0.66 1.98 -1 3 C-2.8253125 3.2165625 -2.8253125 3.2165625 -4.6875 3.4375 C-7.82670377 3.82780953 -10.9075134 4.32351856 -14 5 C-9.67612562 1.34133706 -5.65076098 0 0 0 Z " fill="#CAE072" transform="translate(82,9)"/>
<path d="M0 0 C0.33 0.99 0.66 1.98 1 3 C-0.46067199 2.54917531 -1.91848032 2.08906463 -3.375 1.625 C-4.18710938 1.36976563 -4.99921875 1.11453125 -5.8359375 0.8515625 C-8 0 -8 0 -10 -2 C-5.94545546 -3.71538423 -3.57431562 -2.22401861 0 0 Z " fill="#C9E071" transform="translate(79,174)"/>
<path d="M0 0 C0.33 0 0.66 0 1 0 C1 1.98 1 3.96 1 6 C0.34 6 -0.32 6 -1 6 C-1 7.65 -1 9.3 -1 11 C-1.99 11.33 -2.98 11.66 -4 12 C-3.52309796 10.37433394 -3.04340334 8.74948689 -2.5625 7.125 C-2.29566406 6.22007813 -2.02882812 5.31515625 -1.75390625 4.3828125 C-1 2 -1 2 0 0 Z " fill="#F5FBD2" transform="translate(166,121)"/>
<path d="M0 0 C2.97 0.495 2.97 0.495 6 1 C4.35 2.98 2.7 4.96 1 7 C0.31292445 4.50935112 0 2.62113708 0 0 Z " fill="#C5DF67" transform="translate(61,42)"/>
<path d="M0 0 C0.33 0 0.66 0 1 0 C1 3.96 1 7.92 1 12 C1.99 12.33 2.98 12.66 4 13 C2.02 13.99 2.02 13.99 0 15 C0 10.05 0 5.1 0 0 Z " fill="#FAFEDC" transform="translate(54,7)"/>
<path d="M0 0 C1.07061422 4.2824569 1.05807526 5.27586382 -1 9 C-2.98 9.99 -2.98 9.99 -5 11 C-3.35 7.37 -1.7 3.74 0 0 Z " fill="#F5FBD4" transform="translate(161,133)"/>
<path d="M0 0 C2.64 1.98 5.28 3.96 8 6 C6 7 6 7 3.4375 6.375 C1 5 1 5 0.1875 2.375 C0.125625 1.59125 0.06375 0.8075 0 0 Z " fill="#CADC69" transform="translate(66,143)"/>
<path d="M0 0 C2.24027294 2.88035092 4.16172132 5.84866512 6 9 C1.125 7.125 1.125 7.125 0 6 C-0.04080783 4.00041636 -0.04254356 1.99954746 0 0 Z " fill="#78A2BE" transform="translate(76,106)"/>
<path d="M0 0 C6.875 3.75 6.875 3.75 8 6 C6.35 5.67 4.7 5.34 3 5 C2.67 4.01 2.34 3.02 2 2 C1.34 2 0.68 2 0 2 C0 1.34 0 0.68 0 0 Z " fill="#709BBA" transform="translate(122,40)"/>
<path d="M0 0 C0.66 0.33 1.32 0.66 2 1 C2.4140625 3.06640625 2.4140625 3.06640625 2.625 5.5625 C2.69976562 6.38878906 2.77453125 7.21507813 2.8515625 8.06640625 C2.92503906 9.02353516 2.92503906 9.02353516 3 10 C0.86746245 7.40386733 -0.55075623 5.36932827 -1 2 C-0.67 1.34 -0.34 0.68 0 0 Z " fill="#6697BB" transform="translate(53,116)"/>
<path d="M0 0 C1.32 0.33 2.64 0.66 4 1 C2.25 4.875 2.25 4.875 0 6 C0 4.02 0 2.04 0 0 Z " fill="#6497BA" transform="translate(52,67)"/>
<path d="M0 0 C2.11180592 2.57089417 3.66306057 4.63060567 4 8 C3.34 8.66 2.68 9.32 2 10 C0.68373308 6.38026598 0 3.90432869 0 0 Z " fill="#C8DF70" transform="translate(159,48)"/>
</svg>
