<?xml version="1.0" encoding="UTF-8"?>
<svg version="1.1" xmlns="http://www.w3.org/2000/svg" width="512" height="512">
<path d="M0 0 C0.77318573 0.00182281 1.54637146 0.00364563 2.34298706 0.00552368 C13.7573995 0.05083947 24.69669416 0.52187516 35.8125 3.3125 C36.88927002 3.56193359 36.88927002 3.56193359 37.98779297 3.81640625 C77.14697731 12.96060497 111.95642637 38.20922459 133.46289062 72.10595703 C147.04169122 94.30660822 156.75798782 119.78474272 157.05078125 146.09765625 C157.06554001 147.19217606 157.06554001 147.19217606 157.08059692 148.30880737 C157.53729281 191.00223297 146.39410523 230.43700616 116.8125 262.3125 C116.02383545 263.16690674 116.02383545 263.16690674 115.21923828 264.03857422 C104.24144202 275.79470759 91.37852128 287.18577714 76.8125 294.3125 C76.1525 294.3125 75.4925 294.3125 74.8125 294.3125 C78.95106013 298.6469683 83.45269822 302.37964281 88.125 306.125 C88.86556641 306.72248047 89.60613281 307.31996094 90.36914062 307.93554688 C92.18151834 309.3971418 93.995995 310.85604027 95.8125 312.3125 C94.34345088 316.93442061 91.6623231 320.12080913 88.5 323.6875 C84.68276235 328.08531084 81.07332744 332.47748 77.8125 337.3125 C73.37341471 335.87081542 70.30944053 333.42466919 66.875 330.375 C62.33768838 326.44028488 57.74325523 322.6215883 53 318.9375 C46.97905057 314.2534011 41.04647611 309.46837904 35.14135742 304.63916016 C34.50431885 304.1188623 33.86728027 303.59856445 33.2109375 303.0625 C32.65067871 302.60359375 32.09041992 302.1446875 31.51318359 301.671875 C29.6428675 300.17691088 27.73043887 298.74564569 25.8125 297.3125 C27.19635018 289.65062349 29.14303171 282.2225891 31.2890625 274.7421875 C31.78422867 272.99882614 31.78422867 272.99882614 32.28939819 271.22024536 C33.33513223 267.54161795 34.38622665 263.86454777 35.4375 260.1875 C36.15139763 257.67978881 36.86494287 255.17197727 37.578125 252.6640625 C39.31884298 246.54570859 41.06395372 240.428621 42.8125 234.3125 C49.35244168 235.05458709 55.36666715 236.41449353 61.6875 238.25 C62.63625 238.51490234 63.585 238.77980469 64.5625 239.05273438 C65.46742188 239.31248047 66.37234375 239.57222656 67.3046875 239.83984375 C68.12308105 240.07437256 68.94147461 240.30890137 69.78466797 240.55053711 C71.8125 241.3125 71.8125 241.3125 73.8125 243.3125 C73.379375 244.77623047 73.379375 244.77623047 72.9375 246.26953125 C72.56228981 247.55462615 72.18730138 248.83978581 71.8125 250.125 C71.44125 251.38957031 71.07 252.65414062 70.6875 253.95703125 C69.68633491 257.21837415 69.68633491 257.21837415 69.8125 260.3125 C96.20102223 242.0395968 113.47022353 217.36430687 121.8125 186.3125 C122.13476562 185.12785156 122.45703125 183.94320312 122.7890625 182.72265625 C129.88253312 151.66386199 123.54209122 118.10646622 107.1796875 91.015625 C89.18436642 62.38333343 63.00932624 44.4987811 30.8125 35.3125 C30.13670898 35.1175293 29.46091797 34.92255859 28.76464844 34.72167969 C9.0014092 29.31290202 -13.61044147 30.95339197 -33.1875 36.3125 C-33.84427734 36.48378418 -34.50105469 36.65506836 -35.17773438 36.83154297 C-51.24868569 41.13006823 -66.51486593 49.61715635 -79.1875 60.3125 C-80.16847656 61.13105469 -81.14945312 61.94960938 -82.16015625 62.79296875 C-107.37575589 84.48774617 -121.49224962 115.41404278 -124.1875 148.3125 C-125.72493964 183.24455882 -114.38703982 215.12845677 -91.1875 241.3125 C-89.74342602 242.76432393 -88.28517775 244.20219903 -86.8125 245.625 C-57.58049272 274.29778627 -42.45925592 315.1499792 -41.9375 355.625 C-41.91302833 398.83789936 -59.03452855 438.09128698 -89.1875 468.6875 C-119.44997659 498.59025676 -159.19820404 512.92045842 -201.25686646 512.74005127 C-212.45574011 512.62920223 -223.29421024 512.04726214 -234.1875 509.3125 C-234.90534668 509.14621094 -235.62319336 508.97992188 -236.36279297 508.80859375 C-248.2807155 506.02559779 -259.20096737 501.66069275 -270.1875 496.3125 C-271.16976562 495.84199219 -272.15203125 495.37148438 -273.1640625 494.88671875 C-308.01772335 477.03869605 -335.89014871 443.70080412 -348.08789062 406.57177734 C-353.12516413 390.03007614 -355.60932943 374.13741339 -355.5625 356.875 C-355.56162384 356.08358612 -355.56074768 355.29217224 -355.55984497 354.47677612 C-355.46235632 327.70113098 -349.34825596 302.75069149 -336.1875 279.3125 C-335.24777344 277.63800781 -335.24777344 277.63800781 -334.2890625 275.9296875 C-320.47053272 252.52279012 -299.74027491 230.56304243 -275.1875 218.3125 C-274.5275 218.3125 -273.8675 218.3125 -273.1875 218.3125 C-277.32606013 213.9780317 -281.82769822 210.24535719 -286.5 206.5 C-287.61084961 205.6037793 -287.61084961 205.6037793 -288.74414062 204.68945312 C-290.55651834 203.2278582 -292.370995 201.76895973 -294.1875 200.3125 C-292.71845088 195.69057939 -290.0373231 192.50419087 -286.875 188.9375 C-283.05776235 184.53968916 -279.44832744 180.14752 -276.1875 175.3125 C-271.74838281 176.75419494 -268.68451999 179.20037856 -265.25 182.25 C-260.66863878 186.22134479 -256.03145117 190.08403048 -251.25 193.8125 C-250.38773804 194.48551147 -250.38773804 194.48551147 -249.50805664 195.17211914 C-248.33551575 196.08583611 -247.16241668 196.99883724 -245.98876953 197.91113281 C-242.8818377 200.3282904 -239.78459363 202.75775877 -236.6875 205.1875 C-236.12426025 205.62771484 -235.56102051 206.06792969 -234.98071289 206.52148438 C-231.3257663 209.38657002 -227.74290619 212.32467371 -224.1875 215.3125 C-225.56750078 222.87357069 -227.43858924 230.23384786 -229.5234375 237.62890625 C-229.84406158 238.76657944 -230.16468567 239.90425262 -230.49502563 241.07640076 C-231.17003907 243.46120841 -231.84751502 245.84532032 -232.52734375 248.22875977 C-233.22141747 250.67356896 -233.90786139 253.12055624 -234.58691406 255.56958008 C-235.57010606 259.11508018 -236.57531021 262.65364274 -237.5859375 266.19140625 C-237.88712494 267.29231094 -238.18831238 268.39321564 -238.49862671 269.52748108 C-238.79218048 270.53620773 -239.08573425 271.54493439 -239.38818359 272.58422852 C-239.63974213 273.47562027 -239.89130066 274.36701202 -240.15048218 275.28541565 C-241.1875 277.3125 -241.1875 277.3125 -243.13012695 278.14009094 C-245.9905765 278.37979828 -248.22189576 277.70792847 -250.9765625 276.9140625 C-252.08257812 276.59953125 -253.18859375 276.285 -254.328125 275.9609375 C-255.47796875 275.62320312 -256.6278125 275.28546875 -257.8125 274.9375 C-258.97007812 274.6075 -260.12765625 274.2775 -261.3203125 273.9375 C-269.82666552 271.49291724 -269.82666552 271.49291724 -272.1875 270.3125 C-270.8675 264.3725 -269.5475 258.4325 -268.1875 252.3125 C-297.37554651 272.66732191 -315.78314179 300.80270921 -322.26953125 335.921875 C-327.63901289 369.20177181 -319.35314489 403.09522172 -299.70581055 430.33496094 C-279.82999295 456.7502002 -250.55113223 474.39772796 -217.8984375 479.83984375 C-200.1960483 481.91760747 -182.36716002 481.01533387 -165.1875 476.3125 C-164.53072266 476.14121582 -163.87394531 475.96993164 -163.19726562 475.79345703 C-146.49652224 471.32648019 -131.27140692 462.46714451 -118.1875 451.3125 C-117.24648437 450.53390625 -116.30546875 449.7553125 -115.3359375 448.953125 C-103.71076759 438.932556 -95.20868918 426.85999277 -88.1875 413.3125 C-87.64351563 412.26578125 -87.09953125 411.2190625 -86.5390625 410.140625 C-71.87773854 380.22259337 -70.67203543 345.70444379 -81.1875 314.3125 C-87.75283297 296.41845975 -97.8276409 280.29495259 -111.5625 267 C-139.82934498 239.32409951 -155.89834596 199.27467757 -156.42919922 159.96801758 C-156.54732705 117.73036972 -142.39689685 79.07607446 -113.1875 48.3125 C-112.71328613 47.8057373 -112.23907227 47.29897461 -111.75048828 46.77685547 C-103.93033694 38.46185275 -95.78777559 31.48766429 -86.1875 25.3125 C-85.54329102 24.89371582 -84.89908203 24.47493164 -84.23535156 24.04345703 C-58.7915638 7.70970801 -30.11801077 -0.14734641 0 0 Z " fill="#5E68E1" transform="translate(355.1875,-0.3125)"/>
<path d="M0 0 C41.15841481 -1.04640038 79.35554211 14.9195937 109.09765625 43.16796875 C135.69812271 68.93300459 155.48239144 106.02623198 156.21530151 143.72000122 C156.22288483 144.40150238 156.23046814 145.08300354 156.23828125 145.78515625 C156.25304001 146.87967606 156.25304001 146.87967606 156.26809692 147.99630737 C156.72479281 190.68973297 145.58160523 230.12450616 116 262 C115.47422363 262.56960449 114.94844727 263.13920898 114.40673828 263.72607422 C103.42894202 275.48220759 90.56602128 286.87327714 76 294 C75.34 294 74.68 294 74 294 C78.13856013 298.3344683 82.64019822 302.06714281 87.3125 305.8125 C88.42334961 306.7087207 88.42334961 306.7087207 89.55664062 307.62304688 C91.36901834 309.0846418 93.183495 310.54354027 95 312 C93.53095088 316.62192061 90.8498231 319.80830913 87.6875 323.375 C83.87026235 327.77281084 80.26082744 332.16498 77 337 C72.56091471 335.55831542 69.49694053 333.11216919 66.0625 330.0625 C61.52518838 326.12778488 56.93075523 322.3090883 52.1875 318.625 C46.16655057 313.9409011 40.23397611 309.15587904 34.32885742 304.32666016 C33.69181885 303.8063623 33.05478027 303.28606445 32.3984375 302.75 C31.83817871 302.29109375 31.27791992 301.8321875 30.70068359 301.359375 C28.8303675 299.86441088 26.91793887 298.43314569 25 297 C26.38385018 289.33812349 28.33053171 281.9100891 30.4765625 274.4296875 C30.80667328 273.26744659 31.13678406 272.10520569 31.47689819 270.90774536 C32.52263223 267.22911795 33.57372665 263.55204777 34.625 259.875 C35.33889763 257.36728881 36.05244287 254.85947727 36.765625 252.3515625 C38.50634298 246.23320859 40.25145372 240.116121 42 234 C48.53994168 234.74208709 54.55416715 236.10199353 60.875 237.9375 C61.82375 238.20240234 62.7725 238.46730469 63.75 238.74023438 C64.65492188 238.99998047 65.55984375 239.25972656 66.4921875 239.52734375 C67.71977783 239.87913696 67.71977783 239.87913696 68.97216797 240.23803711 C71 241 71 241 73 243 C72.71125 243.97582031 72.4225 244.95164063 72.125 245.95703125 C71.74978981 247.24212615 71.37480138 248.52728581 71 249.8125 C70.62875 251.07707031 70.2575 252.34164062 69.875 253.64453125 C68.87383491 256.90587415 68.87383491 256.90587415 69 260 C95.38852223 241.7270968 112.65772353 217.05180687 121 186 C121.32226562 184.81535156 121.64453125 183.63070312 121.9765625 182.41015625 C129.07003312 151.35136199 122.72959122 117.79396622 106.3671875 90.703125 C87.75927168 61.09613611 59.54603235 41.76096287 25.59375 33.93359375 C17.03670284 32.15175595 8.81328178 31.62952013 0 31 C0 20.77 0 10.54 0 0 Z " fill="#453EC6" transform="translate(356,0)"/>
<path d="M0 0 C4.43911719 1.44169494 7.50298001 3.88787856 10.9375 6.9375 C15.51886122 10.90884479 20.15604883 14.77153048 24.9375 18.5 C25.51234131 18.94867432 26.08718262 19.39734863 26.67944336 19.85961914 C27.85198425 20.77333611 29.02508332 21.68633724 30.19873047 22.59863281 C33.3056623 25.0157904 36.40290637 27.44525877 39.5 29.875 C40.06323975 30.31521484 40.62647949 30.75542969 41.20678711 31.20898438 C44.8617337 34.07407002 48.44459381 37.01217371 52 40 C50.61999922 47.56107069 48.74891076 54.92134786 46.6640625 62.31640625 C46.34343842 63.45407944 46.02281433 64.59175262 45.69247437 65.76390076 C45.01746093 68.14870841 44.33998498 70.53282032 43.66015625 72.91625977 C42.96608253 75.36106896 42.27963861 77.80805624 41.60058594 80.25708008 C40.61739394 83.80258018 39.61218979 87.34114274 38.6015625 90.87890625 C38.30037506 91.97981094 37.99918762 93.08071564 37.68887329 94.21498108 C37.39531952 95.22370773 37.10176575 96.23243439 36.79931641 97.27172852 C36.54775787 98.16312027 36.29619934 99.05451202 36.03701782 99.97291565 C35 102 35 102 33.05737305 102.82759094 C30.1969235 103.06729828 27.96560424 102.39542847 25.2109375 101.6015625 C23.55191406 101.12976563 23.55191406 101.12976563 21.859375 100.6484375 C20.70953125 100.31070313 19.5596875 99.97296875 18.375 99.625 C17.21742187 99.295 16.05984375 98.965 14.8671875 98.625 C6.36083448 96.18041724 6.36083448 96.18041724 4 95 C5.32 89.06 6.64 83.12 8 77 C-21.18804651 97.35482191 -39.59564179 125.49020921 -46.08203125 160.609375 C-51.45151289 193.88927181 -43.16564489 227.78272172 -23.51831055 255.02246094 C-3.16943672 282.06639853 25.71239044 298.39727158 58.765625 304.45703125 C64.81593319 305.2328549 70.91565469 305.56540391 77 306 C77 316.23 77 326.46 77 337 C51.66422993 337.64412975 28.75862802 332.07879378 6 321 C5.01773438 320.52949219 4.03546875 320.05898438 3.0234375 319.57421875 C-31.83022335 301.72619605 -59.70264871 268.38830412 -71.90039062 231.25927734 C-76.93766413 214.71757614 -79.42182943 198.82491339 -79.375 181.5625 C-79.37412384 180.77108612 -79.37324768 179.97967224 -79.37234497 179.16427612 C-79.27485632 152.38863098 -73.16075596 127.43819149 -60 104 C-59.37351562 102.88367188 -58.74703125 101.76734375 -58.1015625 100.6171875 C-44.28303272 77.21029012 -23.55277491 55.25054243 1 43 C1.66 43 2.32 43 3 43 C-1.13856013 38.6655317 -5.64019822 34.93285719 -10.3125 31.1875 C-11.42334961 30.2912793 -11.42334961 30.2912793 -12.55664062 29.37695312 C-14.36901834 27.9153582 -16.183495 26.45645973 -18 25 C-16.53095088 20.37807939 -13.8498231 17.19169087 -10.6875 13.625 C-6.87026235 9.22718916 -3.26082744 4.83502 0 0 Z " fill="#A05FE3" transform="translate(79,175)"/>
<path d="M0 0 C10.23 0 20.46 0 31 0 C31 10.56 31 21.12 31 32 C33.97 32.99 36.94 33.98 40 35 C42.70703125 36.53515625 42.70703125 36.53515625 44.8125 38.0625 C46.19891325 39.05495976 47.59428059 40.03507979 49 41 C49.5782251 41.4225708 50.1564502 41.8451416 50.75219727 42.28051758 C53.11777127 43.30323768 53.11777127 43.30323768 55.80908203 41.85009766 C56.86466309 41.21120605 57.92024414 40.57231445 59.0078125 39.9140625 C59.57450653 39.57829193 60.14120056 39.24252136 60.72506714 38.89657593 C62.53446197 37.82094117 64.32979523 36.72412457 66.125 35.625 C67.92952273 34.53719779 69.73662781 33.45396591 71.5463562 32.37484741 C73.18588281 31.39456948 74.81798345 30.4019036 76.44970703 29.40869141 C79 28 79 28 81 28 C85.95 36.58 90.9 45.16 96 54 C92.7041443 57.2958557 90.51839656 59.04533524 86.578125 61.234375 C85.55332031 61.80800781 84.52851563 62.38164062 83.47265625 62.97265625 C81.87744141 63.85244141 81.87744141 63.85244141 80.25 64.75 C79.17105469 65.35199219 78.09210938 65.95398438 76.98046875 66.57421875 C74.32358072 68.05549261 71.66340712 69.5304902 69 71 C67.48587767 78.87537732 66.13121575 87.32622031 69 95 C74.76099323 101.14871722 82.80023265 104.52131927 90.45629883 107.75512695 C92.85629669 108.92967241 94.27520094 109.99193236 96 112 C94.44118037 114.83537265 92.87725721 117.66790043 91.3125 120.5 C90.87744141 121.29148437 90.44238281 122.08296875 89.99414062 122.8984375 C87.15106455 128.03703426 84.16752961 133.0547317 81 138 C77.44939735 137.33244517 74.81088342 135.86339813 71.71875 134.0234375 C70.71199219 133.435625 69.70523438 132.8478125 68.66796875 132.2421875 C66.55256417 130.99537691 64.44058031 129.7427446 62.33203125 128.484375 C61.32527344 127.89914063 60.31851563 127.31390625 59.28125 126.7109375 C58.36408203 126.16743652 57.44691406 125.62393555 56.50195312 125.06396484 C54.11636097 123.80940353 54.11636097 123.80940353 51.83374023 124.2331543 C49.19397595 125.3370685 46.9406113 126.85099301 44.5625 128.4375 C36.21294363 134 36.21294363 134 31 134 C31 144.89 31 155.78 31 167 C20.77 167 10.54 167 0 167 C0 156.11 0 145.22 0 134 C-2.97 133.01 -5.94 132.02 -9 131 C-11.7421875 129.46484375 -11.7421875 129.46484375 -13.875 127.9375 C-14.59429687 127.43089844 -15.31359375 126.92429687 -16.0546875 126.40234375 C-16.69664062 125.93957031 -17.33859375 125.47679687 -18 125 C-18.99 124.34 -19.98 123.68 -21 123 C-22.15786011 123.6815918 -22.15786011 123.6815918 -23.33911133 124.37695312 C-26.20427676 126.05942624 -29.0727236 127.73600275 -31.94360352 129.40869141 C-33.18553135 130.1338929 -34.42610453 130.86141945 -35.6652832 131.59130859 C-37.44652045 132.63993444 -39.23245915 133.68010712 -41.01953125 134.71875 C-42.09307861 135.34716797 -43.16662598 135.97558594 -44.27270508 136.62304688 C-47 138 -47 138 -50 138 C-52.02513864 134.50189506 -54.03685085 130.99645407 -56.03637695 127.48364258 C-56.71858932 126.28948689 -57.40444814 125.09740677 -58.09399414 123.9074707 C-59.08392914 122.19771256 -60.05975568 120.47981011 -61.03515625 118.76171875 C-61.6269165 117.73006592 -62.21867676 116.69841309 -62.82836914 115.63549805 C-64 113 -64 113 -63 110 C-60.49975586 108.2824707 -60.49975586 108.2824707 -57.21484375 106.42578125 C-56.35132042 105.9327375 -56.35132042 105.9327375 -55.47035217 105.42973328 C-53.63081461 104.38202331 -51.78438713 103.34718881 -49.9375 102.3125 C-48.68897843 101.6043519 -47.44092525 100.89537731 -46.19335938 100.18554688 C-43.13428285 98.44740868 -40.0689007 96.72074599 -37 95 C-37.08701172 93.93015869 -37.17402344 92.86031738 -37.26367188 91.75805664 C-37.79863712 85.03034416 -38.22678773 78.67917762 -37 72 C-45.51914361 65.87219495 -54.80257837 61.01298899 -64 56 C-63.06907481 49.787071 -59.83387847 45.02711949 -56.6875 39.6875 C-56.10548828 38.66076172 -55.52347656 37.63402344 -54.92382812 36.57617188 C-54.35470703 35.60615234 -53.78558594 34.63613281 -53.19921875 33.63671875 C-52.68190186 32.74686279 -52.16458496 31.85700684 -51.6315918 30.94018555 C-51.0931665 30.29992432 -50.55474121 29.65966309 -50 29 C-45.50982355 29 -43.97703425 29.87026614 -40.140625 32.0625 C-39.02558594 32.69414063 -37.91054688 33.32578125 -36.76171875 33.9765625 C-35.5910399 34.65085779 -34.42046832 35.32533934 -33.25 36 C-32.06424695 36.67526095 -30.87805351 37.34974921 -29.69140625 38.0234375 C-26.7898439 39.67473315 -23.89303084 41.33381681 -21 43 C-20.31035156 42.54109375 -19.62070312 42.0821875 -18.91015625 41.609375 C-17.97042969 40.99578125 -17.03070313 40.3821875 -16.0625 39.75 C-15.14597656 39.14671875 -14.22945313 38.5434375 -13.28515625 37.921875 C-9.36131176 35.62635599 -5.15417193 33.84629864 -1 32 C-0.67 21.44 -0.34 10.88 0 0 Z M-0.9296875 68.265625 C-5.71829957 75.36835104 -6.75709233 80.39077861 -6 89 C-4.30037922 95.18416235 -0.30842568 99.5346244 5 103 C10.80517565 105.76978969 17.0352053 106.08945663 23.24609375 104.3828125 C29.71334147 101.53369362 34.41251095 96.31302062 37.4375 90 C38.86895 82.36559998 38.22727099 76.5888749 34 70 C28.76623214 64.14263426 23.63519338 61.11487782 15.75 60.5625 C9.19179313 60.76156867 3.35309029 63.23726241 -0.9296875 68.265625 Z " fill="#283D64" transform="translate(340,73)"/>
<path d="M0 0 C10.23 0 20.46 0 31 0 C31 10.89 31 21.78 31 33 C33.97 33.99 36.94 34.98 40 36 C42.7421875 37.53515625 42.7421875 37.53515625 44.875 39.0625 C45.59429687 39.56910156 46.31359375 40.07570313 47.0546875 40.59765625 C47.69664062 41.06042969 48.33859375 41.52320313 49 42 C50.485 42.99 50.485 42.99 52 44 C52.70608398 43.58113525 53.41216797 43.16227051 54.13964844 42.73071289 C57.34004828 40.83609934 60.54494573 38.94922817 63.75 37.0625 C64.86117187 36.40314453 65.97234375 35.74378906 67.1171875 35.06445312 C68.72207031 34.12182617 68.72207031 34.12182617 70.359375 33.16015625 C71.34389648 32.57886963 72.32841797 31.99758301 73.34277344 31.39868164 C75.62653993 30.1965778 77.48091927 29.46252831 80 29 C83.96717771 34.60072148 87.51366253 40.4316844 90.9375 46.375 C91.3512085 47.07689453 91.76491699 47.77878906 92.19116211 48.50195312 C93.20790524 50.29124816 94.11317444 52.14288295 95 54 C93.65303831 58.04088506 91.88724298 58.49851484 88.21484375 60.57421875 C87.63916153 60.90291458 87.06347931 61.23161041 86.47035217 61.57026672 C84.63081461 62.61797669 82.78438713 63.65281119 80.9375 64.6875 C79.68897843 65.3956481 78.44092525 66.10462269 77.19335938 66.81445312 C74.13428285 68.55259132 71.0689007 70.27925401 68 72 C68.07653809 72.80099121 68.15307617 73.60198242 68.23193359 74.42724609 C68.37622803 76.02173584 68.37622803 76.02173584 68.5234375 77.6484375 C68.66918213 79.22117432 68.66918213 79.22117432 68.81787109 80.82568359 C69.10202784 85.77823856 69.26169035 91.47661929 67 96 C67.71115967 96.26731934 68.42231934 96.53463867 69.1550293 96.81005859 C72.08642318 98.03614748 74.75947007 99.46629021 77.51953125 101.0390625 C78.54111328 101.61914062 79.56269531 102.19921875 80.61523438 102.796875 C81.67033203 103.40015625 82.72542969 104.0034375 83.8125 104.625 C84.88693359 105.23601562 85.96136719 105.84703125 87.06835938 106.4765625 C89.71386076 107.98155885 92.3576625 109.48945791 95 111 C94.322227 114.561056 92.85232971 117.28719079 91.05859375 120.421875 C90.47529297 121.44667969 89.89199219 122.47148437 89.29101562 123.52734375 C88.67935547 124.59082031 88.06769531 125.65429688 87.4375 126.75 C86.82197266 127.82894531 86.20644531 128.90789062 85.57226562 130.01953125 C84.05244312 132.68216602 82.52821656 135.34217696 81 138 C76.63383932 138 75.37665658 137.32837302 71.71875 135.15625 C70.71199219 134.56972656 69.70523438 133.98320312 68.66796875 133.37890625 C66.55598958 132.12630208 64.44401042 130.87369792 62.33203125 129.62109375 C60.82189453 128.74130859 60.82189453 128.74130859 59.28125 127.84375 C58.36408203 127.29912109 57.44691406 126.75449219 56.50195312 126.19335938 C53.8602722 124.71299477 53.8602722 124.71299477 50 125 C47.36477855 126.42302899 47.36477855 126.42302899 44.6875 128.3125 C40.42713982 131.21148974 36.90026588 132.89988605 32 135 C31.67 145.56 31.34 156.12 31 167 C20.77 167 10.54 167 0 167 C0 156.44 0 145.88 0 135 C-2.97 134.01 -5.94 133.02 -9 132 C-11.70703125 130.46484375 -11.70703125 130.46484375 -13.8125 128.9375 C-15.19891325 127.94504024 -16.59428059 126.96492021 -18 126 C-18.89090332 125.38185425 -18.89090332 125.38185425 -19.79980469 124.7512207 C-22.0562093 123.72062161 -22.0562093 123.72062161 -24.48608398 124.93457031 C-25.39688721 125.47694336 -26.30769043 126.01931641 -27.24609375 126.578125 C-28.24833984 127.16207031 -29.25058594 127.74601562 -30.28320312 128.34765625 C-31.84458008 129.28931641 -31.84458008 129.28931641 -33.4375 130.25 C-35.4971895 131.46610008 -37.55833806 132.67973309 -39.62109375 133.890625 C-40.5330249 134.43750977 -41.44495605 134.98439453 -42.38452148 135.54785156 C-45 137 -45 137 -50 139 C-54.95 130.42 -59.9 121.84 -65 113 C-61.7041443 109.7041443 -59.51839656 107.95466476 -55.578125 105.765625 C-54.55332031 105.19199219 -53.52851562 104.61835938 -52.47265625 104.02734375 C-51.40917969 103.44082031 -50.34570312 102.85429687 -49.25 102.25 C-48.17105469 101.64800781 -47.09210938 101.04601562 -45.98046875 100.42578125 C-43.32358072 98.94450739 -40.66340712 97.4695098 -38 96 C-35.73400645 82.45239426 -35.73400645 82.45239426 -39.50732422 69.97851562 C-43.4874531 66.69755767 -48.08492096 64.74567536 -52.85791016 62.87890625 C-55.78891508 61.67630564 -58.39265202 60.07014157 -61.0625 58.375 C-61.83722656 57.90835938 -62.61195312 57.44171875 -63.41015625 56.9609375 C-64.19712891 56.48527344 -64.19712891 56.48527344 -65 56 C-63.62938601 52.33057139 -61.96645212 49.06140503 -59.9609375 45.69921875 C-59.38085938 44.72275391 -58.80078125 43.74628906 -58.203125 42.74023438 C-57.59984375 41.73283203 -56.9965625 40.72542969 -56.375 39.6875 C-55.76398438 38.66076172 -55.15296875 37.63402344 -54.5234375 36.57617188 C-53.01880606 34.04886125 -51.5109006 31.52356601 -50 29 C-46.9536998 29.63669341 -44.55557015 30.65603876 -41.84765625 32.1796875 C-41.07099609 32.61410156 -40.29433594 33.04851562 -39.49414062 33.49609375 C-38.69169922 33.95113281 -37.88925781 34.40617187 -37.0625 34.875 C-36.26392578 35.32230469 -35.46535156 35.76960938 -34.64257812 36.23046875 C-31.42197884 38.03955435 -28.25617975 39.82873975 -25.18359375 41.8828125 C-23.11524799 43.17014572 -23.11524799 43.17014572 -21.02734375 42.90234375 C-18.34319818 41.70766624 -16.00628401 40.19281915 -13.5625 38.5625 C-5.21294363 33 -5.21294363 33 0 33 C0 22.11 0 11.22 0 0 Z M-2.6953125 70.07421875 C-6.48611709 75.93371956 -7.75783684 81.0586539 -7 88 C-5.11493669 95.20406362 -1.07657304 99.83861146 5 104 C10.83236598 106.79467536 16.95673581 106.85071818 23.0625 104.9375 C28.95177934 102.46817618 32.71998455 98.14712269 35.9375 92.75 C37.75571295 86.33277782 38.19902725 79.90093632 35.4375 73.6875 C32.11327898 67.94673533 27.27668395 64.06739442 21 62 C11.59167391 60.61603124 3.49855275 62.49601035 -2.6953125 70.07421875 Z " fill="#17294C" transform="translate(141,272)"/>
<path d="M0 0 C4.95 0 9.9 0 15 0 C15 20.46 15 40.92 15 62 C12.36 62.66 9.72 63.32 7 64 C0.74356493 66.49012341 -2.47713518 70.26547881 -5.15234375 76.38671875 C-7.31909095 83.06669054 -6.43856013 88.69235208 -3.31640625 94.92578125 C1.28086426 102.16955169 6.57119374 103.47135812 15 106 C15 126.13 15 146.26 15 167 C10.05 167 5.1 167 0 167 C0 156.44 0 145.88 0 135 C-2.97 134.01 -5.94 133.02 -9 132 C-11.70703125 130.46484375 -11.70703125 130.46484375 -13.8125 128.9375 C-15.19891325 127.94504024 -16.59428059 126.96492021 -18 126 C-18.89090332 125.38185425 -18.89090332 125.38185425 -19.79980469 124.7512207 C-22.0562093 123.72062161 -22.0562093 123.72062161 -24.48608398 124.93457031 C-25.39688721 125.47694336 -26.30769043 126.01931641 -27.24609375 126.578125 C-28.24833984 127.16207031 -29.25058594 127.74601562 -30.28320312 128.34765625 C-31.84458008 129.28931641 -31.84458008 129.28931641 -33.4375 130.25 C-35.4971895 131.46610008 -37.55833806 132.67973309 -39.62109375 133.890625 C-40.5330249 134.43750977 -41.44495605 134.98439453 -42.38452148 135.54785156 C-45 137 -45 137 -50 139 C-54.95 130.42 -59.9 121.84 -65 113 C-61.7041443 109.7041443 -59.51839656 107.95466476 -55.578125 105.765625 C-54.55332031 105.19199219 -53.52851562 104.61835938 -52.47265625 104.02734375 C-51.40917969 103.44082031 -50.34570312 102.85429687 -49.25 102.25 C-48.17105469 101.64800781 -47.09210938 101.04601562 -45.98046875 100.42578125 C-43.32358072 98.94450739 -40.66340712 97.4695098 -38 96 C-35.73400645 82.45239426 -35.73400645 82.45239426 -39.50732422 69.97851562 C-43.4874531 66.69755767 -48.08492096 64.74567536 -52.85791016 62.87890625 C-55.78891508 61.67630564 -58.39265202 60.07014157 -61.0625 58.375 C-61.83722656 57.90835938 -62.61195312 57.44171875 -63.41015625 56.9609375 C-64.19712891 56.48527344 -64.19712891 56.48527344 -65 56 C-63.62938601 52.33057139 -61.96645212 49.06140503 -59.9609375 45.69921875 C-59.38085938 44.72275391 -58.80078125 43.74628906 -58.203125 42.74023438 C-57.59984375 41.73283203 -56.9965625 40.72542969 -56.375 39.6875 C-55.76398438 38.66076172 -55.15296875 37.63402344 -54.5234375 36.57617188 C-53.01880606 34.04886125 -51.5109006 31.52356601 -50 29 C-46.9536998 29.63669341 -44.55557015 30.65603876 -41.84765625 32.1796875 C-41.07099609 32.61410156 -40.29433594 33.04851562 -39.49414062 33.49609375 C-38.69169922 33.95113281 -37.88925781 34.40617187 -37.0625 34.875 C-36.26392578 35.32230469 -35.46535156 35.76960938 -34.64257812 36.23046875 C-31.42197884 38.03955435 -28.25617975 39.82873975 -25.18359375 41.8828125 C-23.11524799 43.17014572 -23.11524799 43.17014572 -21.02734375 42.90234375 C-18.34319818 41.70766624 -16.00628401 40.19281915 -13.5625 38.5625 C-5.21294363 33 -5.21294363 33 0 33 C0 22.11 0 11.22 0 0 Z " fill="#283D64" transform="translate(141,272)"/>
<path d="M0 0 C4.95 0 9.9 0 15 0 C15 10.56 15 21.12 15 32 C17.97 32.99 20.94 33.98 24 35 C26.70703125 36.53515625 26.70703125 36.53515625 28.8125 38.0625 C30.19891325 39.05495976 31.59428059 40.03507979 33 41 C33.86733765 41.6338562 33.86733765 41.6338562 34.75219727 42.28051758 C37.11777127 43.30323768 37.11777127 43.30323768 39.80908203 41.85009766 C41.39245361 40.89176025 41.39245361 40.89176025 43.0078125 39.9140625 C43.57450653 39.57829193 44.14120056 39.24252136 44.72506714 38.89657593 C46.53446197 37.82094117 48.32979523 36.72412457 50.125 35.625 C51.92952273 34.53719779 53.73662781 33.45396591 55.5463562 32.37484741 C57.18588281 31.39456948 58.81798345 30.4019036 60.44970703 29.40869141 C63 28 63 28 65 28 C69.95 36.58 74.9 45.16 80 54 C76.7041443 57.2958557 74.51839656 59.04533524 70.578125 61.234375 C69.55332031 61.80800781 68.52851563 62.38164062 67.47265625 62.97265625 C65.87744141 63.85244141 65.87744141 63.85244141 64.25 64.75 C63.17105469 65.35199219 62.09210938 65.95398438 60.98046875 66.57421875 C58.32358072 68.05549261 55.66340712 69.5304902 53 71 C51.48587767 78.87537732 50.13121575 87.32622031 53 95 C58.76099323 101.14871722 66.80023265 104.52131927 74.45629883 107.75512695 C76.85629669 108.92967241 78.27520094 109.99193236 80 112 C78.44118037 114.83537265 76.87725721 117.66790043 75.3125 120.5 C74.87744141 121.29148437 74.44238281 122.08296875 73.99414062 122.8984375 C71.15106455 128.03703426 68.16752961 133.0547317 65 138 C61.44939735 137.33244517 58.81088342 135.86339813 55.71875 134.0234375 C54.71199219 133.435625 53.70523438 132.8478125 52.66796875 132.2421875 C50.55256417 130.99537691 48.44058031 129.7427446 46.33203125 128.484375 C45.32527344 127.89914063 44.31851563 127.31390625 43.28125 126.7109375 C42.36408203 126.16743652 41.44691406 125.62393555 40.50195312 125.06396484 C38.11636097 123.80940353 38.11636097 123.80940353 35.83374023 124.2331543 C33.19397595 125.3370685 30.9406113 126.85099301 28.5625 128.4375 C20.21294363 134 20.21294363 134 15 134 C15 144.89 15 155.78 15 167 C10.05 167 5.1 167 0 167 C0 146.54 0 126.08 0 105 C3.3 104.01 6.6 103.02 10 102 C15.21440108 98.93041963 18.87860195 94.87378748 20.59765625 89.03125 C22.03568801 81.77128384 20.90308531 76.25420199 17 70 C12.21185105 64.15769624 7.53130327 63.25939098 0 61 C0 40.87 0 20.74 0 0 Z " fill="#17294B" transform="translate(356,73)"/>
</svg>
