<?xml version="1.0" encoding="UTF-8"?>
<svg version="1.1" xmlns="http://www.w3.org/2000/svg" width="140" height="130">
<path d="M0 0 C46.2 0 92.4 0 140 0 C140 42.9 140 85.8 140 130 C93.8 130 47.6 130 0 130 C0 87.1 0 44.2 0 0 Z " fill="#FDFEFE" transform="translate(0,0)"/>
<path d="M0 0 C3.21524305 1.40844718 5.32183868 3.10344786 7.75 5.625 C8.67039062 6.57246094 8.67039062 6.57246094 9.609375 7.5390625 C10.29773438 8.26222656 10.29773438 8.26222656 11 9 C9.61581631 12.13468664 8.02745222 14.19065346 5.56005859 16.5559082 C4.85948334 17.23373856 4.15890808 17.91156891 3.43710327 18.60993958 C2.68184357 19.33291733 1.92658386 20.05589508 1.1484375 20.80078125 C-0.44083808 22.350159 -2.02935684 23.90031338 -3.6171875 25.45117188 C-6.12250751 27.88837511 -8.63261379 30.31979581 -11.15625 32.73803711 C-13.59147455 35.076471 -16.00400962 37.43644987 -18.4140625 39.80078125 C-19.17337067 40.51768631 -19.93267883 41.23459137 -20.71499634 41.97322083 C-24.98125506 46.17137525 -24.98125506 46.17137525 -26.59057617 51.83959961 C-25.85177318 55.79321875 -24.49425891 57.40295269 -21.6875 60.25 C-20.48673828 61.49523437 -20.48673828 61.49523437 -19.26171875 62.765625 C-17.9266192 64.08458345 -16.57962632 65.39198243 -15.20703125 66.671875 C-14 68 -14 68 -14 70 C-7.1228486 64.22953099 -0.81359371 57.93066326 5.5 51.5625 C6.52320139 50.5342702 7.54663733 49.50627374 8.5703125 48.47851562 C11.04957999 45.98835662 13.52567538 43.49507167 16 41 C17.1055189 41.93590504 18.20935453 42.87379858 19.3125 43.8125 C19.92738281 44.33457031 20.54226562 44.85664062 21.17578125 45.39453125 C24.518455 48.33637046 24.518455 48.33637046 26 50 C25.86923541 53.78448118 23.66774455 55.7059999 21.0625 58.25 C20.35222656 58.95640625 19.64195313 59.6628125 18.91015625 60.390625 C17 62 17 62 15 62 C14.67 62.99 14.34 63.98 14 65 C12.29296875 66.68359375 12.29296875 66.68359375 10.1875 68.4375 C9.46949219 69.05625 8.75148437 69.675 8.01171875 70.3125 C6.53367502 71.55233474 5.02486684 72.7557282 3.5 73.9375 C1.63261774 76.50515061 1.26454265 78.68095078 1.40625 81.83984375 C2.58538985 86.12974069 5.87680265 88.98380727 9 92 C10 93 11 94 12 95 C10.59155282 98.21524305 8.89655214 100.32183868 6.375 102.75 C5.74335937 103.36359375 5.11171875 103.9771875 4.4609375 104.609375 C3.73777344 105.29773438 3.73777344 105.29773438 3 106 C-0.2239517 104.58460657 -2.35666792 102.88585072 -4.8125 100.375 C-5.43769531 99.74335937 -6.06289063 99.11171875 -6.70703125 98.4609375 C-8.61065598 96.41786496 -10.43930988 94.34107378 -12.26171875 92.2265625 C-15.98431351 87.94928471 -19.95358268 83.96889974 -24 80 C-28.70589227 75.38425892 -33.23384158 70.70748716 -37.51806641 65.69458008 C-39.09487822 63.84586035 -39.09487822 63.84586035 -41.375 61.6875 C-44.26292032 58.68850583 -44.29563118 55.30280128 -44.5 51.3125 C-44.5721875 50.31863281 -44.644375 49.32476562 -44.71875 48.30078125 C-43.03765706 40.58054467 -34.45593244 34.3178271 -28.984375 28.88671875 C-28.24672913 28.15048782 -27.50908325 27.4142569 -26.74908447 26.65571594 C-24.41841928 24.3305926 -22.08428511 22.00898855 -19.75 19.6875 C-18.16903805 18.11156161 -16.5883068 16.53539176 -15.0078125 14.95898438 C-11.54214175 11.50308638 -8.07428822 8.04939659 -4.60443115 4.59770203 C-3.06751357 3.06723041 -1.53310832 1.53428652 0 0 Z " fill="#0D213C" transform="translate(66,12)"/>
<path d="M0 0 C6.08886936 5.01233658 11.6742728 10.48809349 17.24487305 16.05957031 C18.8212803 17.633768 20.4055543 19.19976071 21.99023438 20.765625 C23.00048817 21.77294815 24.01027096 22.78074394 25.01953125 23.7890625 C25.92807861 24.69350098 26.83662598 25.59793945 27.77270508 26.52978516 C30.9472474 30.05055894 32.2875932 32.6427083 32.3125 37.375 C32.32925781 38.10460937 32.34601563 38.83421875 32.36328125 39.5859375 C31.3578675 46.26707402 26.97686504 50.43153621 22.36328125 54.9296875 C21.72384079 55.56488312 21.08440033 56.20007874 20.42558289 56.85452271 C18.39486036 58.8685411 16.35392593 60.87183727 14.3125 62.875 C12.92834728 64.24409526 11.54487609 65.61387991 10.16210938 66.984375 C6.78257653 70.33094827 3.39384951 73.66794904 0 77 C-1.30718134 76.06699744 -2.60808265 75.1251918 -3.90625 74.1796875 C-4.63134766 73.65616699 -5.35644531 73.13264648 -6.10351562 72.59326172 C-8.40580917 70.65907433 -9.31344751 68.91784809 -10 66 C-5.59897296 60.8729152 -1.20658099 56.32035444 4 52 C5.849324 49.99285622 7.62417964 47.9384735 9.3828125 45.8515625 C11 44 11 44 13.5 41.8125 C15.24143032 40.10617557 15.24143032 40.10617557 14.97265625 37.7734375 C13.57840806 33.79787038 10.98566334 31.63074474 7.9375 28.8125 C5.91088554 26.91010481 3.94633772 24.98743686 2 23 C2 22.34 2 21.68 2 21 C-2.20548405 23.25626344 -5.33112594 26.12291263 -8.59765625 29.54296875 C-9.65663271 30.62721527 -10.71588568 31.71119178 -11.77539062 32.79492188 C-13.42719387 34.49651832 -15.07561939 36.2011492 -16.71899414 37.91088867 C-18.31565227 39.56783388 -19.92442778 41.21221494 -21.53515625 42.85546875 C-22.26811668 43.62880806 -22.26811668 43.62880806 -23.0158844 44.41777039 C-24.42211914 45.84448242 -24.42211914 45.84448242 -27 48 C-31 48 -31 48 -32.921875 46.35546875 C-33.52515625 45.64003906 -34.1284375 44.92460938 -34.75 44.1875 C-35.36359375 43.47980469 -35.9771875 42.77210937 -36.609375 42.04296875 C-38 40 -38 40 -38 37 C-36.125 34.8125 -36.125 34.8125 -34 33 C-33.34 33 -32.68 33 -32 33 C-32 32.34 -32 31.68 -32 31 C-27.69767442 26.23255814 -27.69767442 26.23255814 -24 25 C-24 24.34 -24 23.68 -24 23 C-20.97263149 19.66989464 -17.60570464 16.74504479 -14.25 13.75 C-9.31581779 9.34183421 -4.6270205 4.7276079 0 0 Z " fill="#70C5A8" transform="translate(82,26)"/>
<path d="M0 0 C0 3 0 3 -2.25 5.375 C-3.1575 6.24125 -4.065 7.1075 -5 8 C-5.8971875 9.175625 -5.8971875 9.175625 -6.8125 10.375 C-9.33456815 13.40148178 -12.15100302 15.76676284 -15.1953125 18.25390625 C-17.09607825 20.09295883 -18.05537021 21.54104102 -19 24 C-19 24.99 -19 25.98 -19 27 C-20.3125 29.625 -20.3125 29.625 -22 32 C-23.485 32.495 -23.485 32.495 -25 33 C-25 33.66 -25 34.32 -25 35 C-26.875 37.125 -26.875 37.125 -29 39 C-29.66 39 -30.32 39 -31 39 C-29.47182124 41.75072177 -28.04684208 43.95315792 -25.8125 46.1875 C-25.214375 46.785625 -24.61625 47.38375 -24 48 C-24 48.66 -24 49.32 -24 50 C-19.28258702 48.57214885 -16.46665486 45.81561448 -13.1484375 42.3359375 C-12.60772614 41.78386627 -12.06701477 41.23179504 -11.50991821 40.66299438 C-9.79083918 38.90740064 -8.08184052 37.14248967 -6.375 35.375 C-4.12054654 33.040933 -1.85647619 30.71684758 0.4140625 28.3984375 C0.92973785 27.85786713 1.44541321 27.31729675 1.97671509 26.76034546 C3.26151159 25.44925172 4.62561894 24.21685888 6 23 C9 23 9 23 10.578125 24.50390625 C11.40570313 25.52291016 11.40570313 25.52291016 12.25 26.5625 C15.19978789 30.12997851 18.31981425 33.22820074 21.8125 36.26171875 C23 38 23 38 22.94921875 40.43359375 C21.78032031 43.59394878 20.2761136 45.0888326 17.8125 47.375 C14.43561479 50.59668763 11.32655643 53.86422946 8.3359375 57.44140625 C5.66490777 60.5576076 2.72065108 63.37417143 -0.375 66.0625 C-2.21420409 67.83394034 -2.21420409 67.83394034 -2 70 C-0.7407491 72.51850179 0.92196105 74.1230616 3 76 C2.34 76 1.68 76 1 76 C1.33 77.32 1.66 78.64 2 80 C-1 80 -1 80 -2.82421875 78.53125 C-5.92621138 75.14962282 -7.81143116 72.63903883 -9.125 68.1875 C-8.54270262 61.75691151 -1.530779 56.99880099 3 53 C3.77085938 52.31292969 4.54171875 51.62585938 5.3359375 50.91796875 C7.75219647 48.79332725 10.18763395 46.69215914 12.63671875 44.60546875 C14.22894937 43.22062056 14.22894937 43.22062056 16 41 C15.70372531 37.37804189 14.0077476 35.68005228 11.4375 33.25 C10.79683594 32.63640625 10.15617187 32.0228125 9.49609375 31.390625 C8.75552734 30.70226563 8.75552734 30.70226563 8 30 C3.62542563 33.5853155 -0.45102546 37.37653611 -4.42578125 41.3984375 C-4.90304657 41.88121155 -5.38031189 42.3639856 -5.87203979 42.86138916 C-7.86338241 44.88046705 -9.85088532 46.90323913 -11.83422852 48.93017578 C-13.29793765 50.42391093 -14.76766495 51.91150681 -16.23828125 53.3984375 C-17.10493408 54.28192871 -17.97158691 55.16541992 -18.86450195 56.07568359 C-21 58 -21 58 -23 58 C-24.83808552 56.17612648 -26.44825049 54.20142814 -28.11328125 52.21875 C-29.29687151 50.82686746 -30.51919195 49.46610327 -31.79296875 48.15625 C-32.33566406 47.5890625 -32.87835938 47.021875 -33.4375 46.4375 C-33.93121094 45.94121094 -34.42492188 45.44492188 -34.93359375 44.93359375 C-36.72617852 41.68330269 -36.52566102 39.68169393 -36 36 C-33.75192925 32.76716085 -30.96667188 30.15270037 -28.125 27.44140625 C-27.32594238 26.65225327 -26.52688477 25.86310028 -25.70361328 25.05003357 C-23.15171594 22.53726993 -20.57655386 20.04995044 -18 17.5625 C-16.26403411 15.86164826 -14.5296389 14.15919182 -12.796875 12.45507812 C-8.54928914 8.2846047 -4.2823478 4.13475483 0 0 Z " fill="#EEF6F6" transform="translate(75,24)"/>
<path d="M0 0 C0.75 1.6640625 0.75 1.6640625 1 4 C-3.17199836 10.63909355 -8.86964252 16.1739739 -15 21 C-15.66 20.67 -16.32 20.34 -17 20 C-16.33411865 19.35768433 -16.33411865 19.35768433 -15.65478516 18.70239258 C-13.63691561 16.74710286 -11.63094917 14.78001401 -9.625 12.8125 C-8.92632812 12.13896484 -8.22765625 11.46542969 -7.5078125 10.77148438 C-6.8375 10.11083984 -6.1671875 9.45019531 -5.4765625 8.76953125 C-4.85861816 8.16729736 -4.24067383 7.56506348 -3.60400391 6.94458008 C-1.79498037 4.75144881 -0.92423418 2.67382159 0 0 Z " fill="#E7FCF8" transform="translate(113,68)"/>
<path d="M0 0 C0.33 0.66 0.66 1.32 1 2 C-0.375 4 -0.375 4 -2 6 C-2.66 6 -3.32 6 -4 6 C-4 6.66 -4 7.32 -4 8 C-5.28817344 9.37701298 -6.62804426 10.70644173 -8 12 C-8.5775 12.5775 -9.155 13.155 -9.75 13.75 C-10.36875 14.36875 -10.36875 14.36875 -11 15 C-11.99 14.67 -12.98 14.34 -14 14 C-9.38 9.38 -4.76 4.76 0 0 Z " fill="#E2FAF4" transform="translate(95,89)"/>
<path d="M0 0 C2 2 2 2 2 5 C0.68 5 -0.64 5 -2 5 C-2.99 6.98 -3.98 8.96 -5 11 C-5.99 11 -6.98 11 -8 11 C-10.15028304 11.94978897 -10.15028304 11.94978897 -12 13 C-8.19524578 8.43969176 -4.25030379 4.14910608 0 0 Z " fill="#243348" transform="translate(51,27)"/>
<path d="M0 0 C0.66 0 1.32 0 2 0 C0.63835184 5.14400416 -2.6884072 8.1256048 -7 11 C-9.2265625 11.671875 -9.2265625 11.671875 -11 12 C-10.67 11.34 -10.34 10.68 -10 10 C-9.34 10 -8.68 10 -8 10 C-8 9.34 -8 8.68 -8 8 C-3.69767442 3.23255814 -3.69767442 3.23255814 0 2 C0 1.34 0 0.68 0 0 Z " fill="#85C6B0" transform="translate(58,49)"/>
<path d="M0 0 C1.65 0.33 3.3 0.66 5 1 C5.61172472 8.21835174 5.61172472 8.21835174 2.75 11.875 C0.49484681 13.61761838 -1.45655832 14.79349562 -4 16 C-3.57847656 15.55269531 -3.15695313 15.10539062 -2.72265625 14.64453125 C1.69162015 10.02360811 1.69162015 10.02360811 3 4 C1.66846734 1.69495956 1.66846734 1.69495956 0 0 Z " fill="#8ECAB5" transform="translate(94,58)"/>
<path d="M0 0 C0.33 0.99 0.66 1.98 1 3 C-0.07356677 4.15498897 -1.15929788 5.29867867 -2.25 6.4375 C-2.85328125 7.07558594 -3.4565625 7.71367188 -4.078125 8.37109375 C-6.10048016 10.08516306 -7.41270605 10.59358878 -10 11 C-8.55218207 7.55571735 -6.72305391 5.63869038 -3.875 3.25 C-3.15054688 2.63640625 -2.42609375 2.0228125 -1.6796875 1.390625 C-0.84824219 0.70226563 -0.84824219 0.70226563 0 0 Z " fill="#81C4AE" transform="translate(72,36)"/>
<path d="M0 0 C0 3.26229641 -0.21770324 4.32655486 -2 7 C-7.22222222 11 -7.22222222 11 -11 11 C-7.37 7.37 -3.74 3.74 0 0 Z " fill="#3B485A" transform="translate(63,15)"/>
<path d="M0 0 C0.33 0.66 0.66 1.32 1 2 C-2.75 7.875 -2.75 7.875 -5 9 C-5 10.65 -5 12.3 -5 14 C-5.99 13.01 -6.98 12.02 -8 11 C-6.63629701 8.00779732 -5.05091917 5.70973471 -2.875 3.25 C-2.33617188 2.63640625 -1.79734375 2.0228125 -1.2421875 1.390625 C-0.62730469 0.70226562 -0.62730469 0.70226562 0 0 Z " fill="#88C5B1" transform="translate(80,83)"/>
<path d="M0 0 C2.4375 0.8125 2.4375 0.8125 5 2 C5.33 2.99 5.66 3.98 6 5 C7.32 5 8.64 5 10 5 C9.67 5.99 9.34 6.98 9 8 C4.7257442 6.4169423 2.73468206 3.49431596 0 0 Z " fill="#263244" transform="translate(60,110)"/>
<path d="M0 0 C0 0.99 0 1.98 0 3 C-2.5 5.1875 -2.5 5.1875 -5 7 C-5.66 6.67 -6.32 6.34 -7 6 C-4.9859524 2.9789286 -3.36720387 1.39332574 0 0 Z " fill="#7EC6AB" transform="translate(93,72)"/>
<path d="M0 0 C1.65 1.65 3.3 3.3 5 5 C4.67 5.99 4.34 6.98 4 8 C1.10067643 5.60490662 0.49831724 3.68754757 0 0 Z " fill="#8AC8B3" transform="translate(108,52)"/>
</svg>
